<?xml version="1.0" encoding="UTF-8"?>
<svg version="1.1" xmlns="http://www.w3.org/2000/svg" width="500" height="500">
<path d="M0 0 C5.81065518 1.96149996 11.60326759 3.65815443 17.578125 5.03515625 C18.47120361 5.24229248 19.36428223 5.44942871 20.28442383 5.6628418 C48.51874227 12.04274839 77.78767828 11.2702116 102.98046875 -4.296875 C103.67269531 -4.74417969 104.36492187 -5.19148437 105.078125 -5.65234375 C105.078125 -1.65234375 105.078125 -1.65234375 103.25 0.671875 C102.05117188 1.84169922 102.05117188 1.84169922 100.828125 3.03515625 C100.03921875 3.82277344 99.2503125 4.61039063 98.4375 5.421875 C96.18182768 7.26301151 94.9161371 7.96361333 92.078125 8.34765625 C92.078125 9.00765625 92.078125 9.66765625 92.078125 10.34765625 C57.20962344 26.99123806 20.71489766 25.10171989 -15.234375 12.47265625 C-17.2124397 11.77270068 -19.19030533 11.07218228 -21.16796875 10.37109375 C-53.74015988 -1.15052478 -90.95003302 -11.38963783 -124.29296875 3.26171875 C-126.84575743 4.31621392 -129.20303139 4.90356201 -131.921875 5.34765625 C-131.261875 4.02765625 -130.601875 2.70765625 -129.921875 1.34765625 C-129.261875 1.34765625 -128.601875 1.34765625 -127.921875 1.34765625 C-127.921875 0.68765625 -127.921875 0.02765625 -127.921875 -0.65234375 C-92.70584881 -29.7908997 -38.12413707 -12.94345862 0 0 Z " fill="#599EAF" transform="translate(267.921875,228.65234375)"/>
<path d="M0 0 C17.32377655 -0.02254661 34.64754065 -0.04097893 51.97132778 -0.05181217 C60.01450054 -0.05697523 68.05766357 -0.06401812 76.10083008 -0.07543945 C83.1087296 -0.08538598 90.11662208 -0.09185335 97.12452847 -0.09408849 C100.83743192 -0.09539566 104.5503152 -0.09848184 108.2632122 -0.10573006 C112.40131411 -0.11374332 116.53938061 -0.11399116 120.67749023 -0.11352539 C121.91754318 -0.11712067 123.15759613 -0.12071594 124.43522644 -0.12442017 C125.55568359 -0.1230455 126.67614075 -0.12167084 127.83055115 -0.12025452 C128.81041709 -0.12117631 129.79028303 -0.1220981 130.79984188 -0.12304783 C133 0 133 0 134 1 C134.09409479 3.02494231 134.11743122 5.0531987 134.11352539 7.08032227 C134.11344986 8.38159561 134.11337433 9.68286896 134.11329651 11.02357483 C134.10818909 12.45451902 134.10297308 13.88546282 134.09765625 15.31640625 C134.09579203 16.7722926 134.09436815 18.22817957 134.09336853 19.68406677 C134.08954365 23.52279379 134.07971364 27.36148319 134.06866455 31.20019531 C134.05844978 35.11457816 134.05387077 39.02896706 134.04882812 42.94335938 C134.03809134 50.62892343 134.02101529 58.31445645 134 66 C127.375 66.125 127.375 66.125 124 65 C124 46.52 124 28.04 124 9 C118.39 9 112.78 9 107 9 C107 25.5 107 42 107 59 C102.80959731 60.3968009 100.87233324 58.86445675 97 57 C96 56 96 56 95.87974548 54.09544373 C95.88196609 53.26271439 95.88418671 52.42998505 95.88647461 51.57202148 C95.88659546 50.61791382 95.88671631 49.66380615 95.88684082 48.68078613 C95.89195679 47.67108765 95.89707275 46.66138916 95.90234375 45.62109375 C95.90335083 44.69816528 95.90435791 43.77523682 95.90539551 42.82434082 C95.91064506 39.36204799 95.92460619 35.8997728 95.9375 32.4375 C95.958125 24.703125 95.97875 16.96875 96 9 C53.43 9.495 53.43 9.495 10 10 C10 20.89 10 31.78 10 43 C7.36 43.99 4.72 44.98 2 46 C1.34 45.67 0.68 45.34 0 45 C0 30.15 0 15.3 0 0 Z " fill="#B89860" transform="translate(169,169)"/>
<path d="M0 0 C2.05782056 -0.21692984 4.12226213 -0.37163893 6.1875 -0.5 C7.91033203 -0.63921875 7.91033203 -0.63921875 9.66796875 -0.78125 C13.29263239 0.06861252 13.59643401 0.2379908 15.515625 3.15625 C16.38296586 4.75011015 17.20581432 6.36845489 18 8 C18.50829346 9.04091797 19.01658691 10.08183594 19.5402832 11.15429688 C21.2523942 14.75319823 22.91429432 18.37158279 24.5625 22 C25.68668904 24.45930377 26.81379364 26.91726441 27.94140625 29.375 C28.46621582 30.5196875 28.99102539 31.664375 29.53173828 32.84375 C31.28066455 36.60333077 33.11261535 40.30829408 35 44 C38.10141722 39.79093378 40.06327997 35.65916222 41.875 30.7578125 C43.06674203 27.83638932 44.45412935 25.07300035 45.88085938 22.26123047 C47.95845186 18.06344216 49.84165503 13.77668189 51.75 9.5 C52.36681641 8.12328125 52.36681641 8.12328125 52.99609375 6.71875 C53.99893453 4.47984966 55.00020351 2.24026102 56 0 C57.95825873 -0.02694851 59.91662226 -0.04637218 61.875 -0.0625 C63.51082031 -0.07990234 63.51082031 -0.07990234 65.1796875 -0.09765625 C68 0 68 0 70 1 C69.67 1.99 69.34 2.98 69 4 C68.01 4.33 67.02 4.66 66 5 C65.97490485 9.99470675 65.95695724 14.98937519 65.94506836 19.98413086 C65.9401016 21.67619467 65.93332592 23.36825434 65.92456055 25.06030273 C65.87061221 35.75794047 66.11103636 46.33544296 67 57 C68.98 57.66 70.96 58.32 73 59 C72.505 59.99 72.505 59.99 72 61 C69.38578081 61.34319088 66.87602357 61.56035977 64.25 61.6875 C63.53328125 61.73455078 62.8165625 61.78160156 62.078125 61.83007812 C58.21180725 62.04684778 54.75362717 61.98274097 51 61 C51 60.01 51 59.02 51 58 C52.98 57.505 52.98 57.505 55 57 C54.67 44.79 54.34 32.58 54 20 C49.89989783 29.18272056 49.89989783 29.18272056 45.80371094 38.3671875 C42.99416035 44.64715372 40.12442607 50.86905074 37 57 C36.30959426 58.65697379 35.63028587 60.31923769 35 62 C33.21875 61.91015625 33.21875 61.91015625 31 61 C29.63392154 58.81116974 28.56303405 56.77071177 27.5 54.4375 C26.81352667 52.99820779 26.12595055 51.55944125 25.4375 50.12109375 C25.05851562 49.31913574 24.67953125 48.51717773 24.2890625 47.69091797 C21.76618736 42.42441611 19.12120724 37.21804375 16.5 32 C15.44747762 29.89605292 14.39535961 27.79190346 13.34375 25.6875 C12.89193359 24.78386719 12.44011719 23.88023437 11.97460938 22.94921875 C11.65298828 22.30597656 11.33136719 21.66273438 11 21 C10.01391661 28.68150674 9.68841256 36.32534371 9.4375 44.0625 C9.39431641 45.30966797 9.35113281 46.55683594 9.30664062 47.84179688 C9.20137704 50.89444091 9.09924059 53.94715523 9 57 C11.31 57.66 13.62 58.32 16 59 C15.67 59.66 15.34 60.32 15 61 C9.06 61 3.12 61 -3 61 C-3 60.01 -3 59.02 -3 58 C-2.360625 57.87625 -1.72125 57.7525 -1.0625 57.625 C-0.381875 57.41875 0.29875 57.2125 1 57 C2.39180375 54.21639249 2.32833113 51.72813744 2.53515625 48.62109375 C2.62273193 47.31430664 2.71030762 46.00751953 2.80053711 44.66113281 C2.8888591 43.25331765 2.97616264 41.84543827 3.0625 40.4375 C3.10569366 39.73492065 3.14888733 39.03234131 3.19338989 38.30847168 C3.48248642 33.53998469 3.74637379 28.7705007 4 24 C4.05639648 22.98373535 4.11279297 21.9674707 4.17089844 20.92041016 C4.29154959 18.52984409 4.37610658 16.14270607 4.4375 13.75 C4.47746094 12.48671875 4.51742188 11.2234375 4.55859375 9.921875 C4.29528681 6.78034233 4.29528681 6.78034233 1.47265625 5.078125 C0.65667969 4.72234375 -0.15929687 4.3665625 -1 4 C-0.67 2.68 -0.34 1.36 0 0 Z " fill="#B79862" transform="translate(299,270)"/>
<path d="M0 0 C0.60972656 0.27714844 1.21945313 0.55429688 1.84765625 0.83984375 C2.51667969 1.13632813 3.18570313 1.4328125 3.875 1.73828125 C6.96053192 3.31362001 9.94409364 4.98534759 12.91015625 6.77734375 C12.91015625 7.43734375 12.91015625 8.09734375 12.91015625 8.77734375 C13.63589844 8.89078125 14.36164063 9.00421875 15.109375 9.12109375 C18.03745194 9.80717035 20.11231254 10.79746385 22.72265625 12.27734375 C23.70105469 12.82648438 24.67945313 13.375625 25.6875 13.94140625 C26.75097656 14.54726562 27.81445312 15.153125 28.91015625 15.77734375 C30.58116552 16.72017011 32.25221971 17.66291783 33.92407227 18.60424805 C35.19201973 19.31831055 36.45941338 20.03335712 37.72631836 20.74926758 C42.48007311 23.42951209 47.2532916 26.07341914 52.03515625 28.703125 C52.98553268 29.22604126 52.98553268 29.22604126 53.95510864 29.75952148 C57.14559917 31.51459995 60.33730926 33.26740681 63.53076172 35.01708984 C70.41387334 38.79620641 77.20856299 42.68476198 83.91015625 46.77734375 C85.25956299 47.5202063 85.25956299 47.5202063 86.63623047 48.27807617 C88.91015625 49.77734375 88.91015625 49.77734375 89.72265625 52.46484375 C89.78453125 53.22796875 89.84640625 53.99109375 89.91015625 54.77734375 C78.20617665 56.02146757 70.3398905 51.19758834 60.91015625 44.77734375 C59.27163509 43.85304976 57.62319369 42.94626272 55.96875 42.05078125 C54.98817627 41.51936523 54.00760254 40.98794922 52.99731445 40.44042969 C50.01422685 38.83340772 47.02918201 37.23011166 44.04296875 35.62890625 C34.43231884 30.4728766 24.90605942 25.30152094 15.66796875 19.5 C12.79668059 17.70646164 9.90798827 15.96418122 6.97265625 14.27734375 C6.13863281 13.79265625 5.30460937 13.30796875 4.4453125 12.80859375 C1.13774521 11.46314265 -0.51691557 11.2286291 -4.08984375 11.77734375 C-7.70073959 13.41648233 -11.06324226 15.43285639 -14.46484375 17.46484375 C-16.51697919 18.65970147 -18.57040834 19.85233953 -20.625 21.04296875 C-21.68477051 21.65978516 -22.74454102 22.27660156 -23.83642578 22.91210938 C-30.0994054 26.50277156 -36.47612063 29.88454774 -42.84326172 33.28588867 C-48.1832533 36.15314982 -53.41302464 39.14287004 -58.59594727 42.28442383 C-62.88787039 44.85369548 -67.25282127 47.27317509 -71.65234375 49.65234375 C-72.53341797 50.14992187 -73.41449219 50.6475 -74.32226562 51.16015625 C-80.25999732 54.35031764 -84.34747576 55.42705079 -91.08984375 54.77734375 C-91.74984375 54.44734375 -92.40984375 54.11734375 -93.08984375 53.77734375 C-93.08984375 52.45734375 -93.08984375 51.13734375 -93.08984375 49.77734375 C-91.2890625 48.28515625 -91.2890625 48.28515625 -88.77734375 46.90234375 C-87.38902344 46.12503906 -87.38902344 46.12503906 -85.97265625 45.33203125 C-85.02132812 44.81898438 -84.07 44.3059375 -83.08984375 43.77734375 C-82.28289062 43.32617188 -81.4759375 42.875 -80.64453125 42.41015625 C-76.35045652 40.02755052 -72.01152939 37.73282328 -67.66015625 35.45703125 C-66.86472412 35.0408252 -66.06929199 34.62461914 -65.24975586 34.19580078 C-63.60252691 33.3340432 -61.95490337 32.47303946 -60.30688477 31.61279297 C-54.01880406 28.31275419 -47.87502589 24.81425668 -41.77734375 21.17578125 C-39.08984375 19.77734375 -39.08984375 19.77734375 -36.08984375 19.77734375 C-36.08984375 19.11734375 -36.08984375 18.45734375 -36.08984375 17.77734375 C-35.24164063 17.36484375 -34.3934375 16.95234375 -33.51953125 16.52734375 C-25.93209566 12.79199084 -18.54869156 8.83975485 -11.24609375 4.57421875 C-9.68375 3.68476562 -9.68375 3.68476562 -8.08984375 2.77734375 C-7.04699219 2.18308594 -6.00414062 1.58882813 -4.9296875 0.9765625 C-2.08984375 -0.22265625 -2.08984375 -0.22265625 0 0 Z " fill="#B59863" transform="translate(237.08984375,116.22265625)"/>
<path d="M0 0 C2.15478516 -0.34057617 2.15478516 -0.34057617 4.7890625 -0.29296875 C5.73007813 -0.28330078 6.67109375 -0.27363281 7.640625 -0.26367188 C9.11789063 -0.2259668 9.11789063 -0.2259668 10.625 -0.1875 C12.11386719 -0.16719727 12.11386719 -0.16719727 13.6328125 -0.14648438 C16.08908072 -0.11105743 18.54427285 -0.06166196 21 0 C21.33 1.32 21.66 2.64 22 4 C20.35 4.66 18.7 5.32 17 6 C16.67 12.93 16.34 19.86 16 27 C25.57 26.67 35.14 26.34 45 26 C45 19.07 45 12.14 45 5 C43.02 4.34 41.04 3.68 39 3 C39.33 2.01 39.66 1.02 40 0 C46.6 0 53.2 0 60 0 C60.495 1.98 60.495 1.98 61 4 C59.02 4.99 59.02 4.99 57 6 C56.97470627 12.94172388 56.95715696 19.88343594 56.94506836 26.82519531 C56.94003041 29.18815556 56.93319992 31.55111268 56.92456055 33.9140625 C56.91247146 37.30469535 56.90676641 40.69528709 56.90234375 44.0859375 C56.89718246 45.14743011 56.89202118 46.20892273 56.88670349 47.30258179 C56.88662796 48.28344757 56.88655243 49.26431335 56.88647461 50.27490234 C56.884254 51.14094086 56.88203339 52.00697937 56.87974548 52.89926147 C56.86446254 55.0583966 56.86446254 55.0583966 58 57 C58.99 57.33 59.98 57.66 61 58 C61 58.99 61 59.98 61 61 C53.74 61 46.48 61 39 61 C39 60.01 39 59.02 39 58 C39.804375 57.731875 40.60875 57.46375 41.4375 57.1875 C42.283125 56.795625 43.12875 56.40375 44 56 C44.96088383 53.11734851 45.11670941 51.32337729 45.09765625 48.33203125 C45.09515869 47.52741455 45.09266113 46.72279785 45.09008789 45.89379883 C45.08098389 44.87697021 45.07187988 43.8601416 45.0625 42.8125 C45.041875 39.574375 45.02125 36.33625 45 33 C35.43 32.67 25.86 32.34 16 32 C16.33 39.92 16.66 47.84 17 56 C18.65 56.66 20.3 57.32 22 58 C22 58.99 22 59.98 22 61 C14.41 61 6.82 61 -1 61 C-1 60.01 -1 59.02 -1 58 C0.65 58 2.3 58 4 58 C4 40.84 4 23.68 4 6 C2.02 5.01 0.04 4.02 -2 3 C-1.34 2.01 -0.68 1.02 0 0 Z " fill="#BA9C62" transform="translate(152,270)"/>
<path d="M0 0 C2.39501953 -0.37231445 2.39501953 -0.37231445 5.3828125 -0.36328125 C6.46820313 -0.36263672 7.55359375 -0.36199219 8.671875 -0.36132812 C9.81140625 -0.34521484 10.9509375 -0.32910156 12.125 -0.3125 C13.79949219 -0.31733398 13.79949219 -0.31733398 15.5078125 -0.32226562 C23.44673193 -0.27077499 31.46991157 -0.07895767 38 5 C40.69823335 8.20870992 41.8944516 10.27435477 42.5 14.4375 C41.77450066 19.60668282 39.73416916 23.26583084 36 27 C35.01 27 34.02 27 33 27 C33 27.66 33 28.32 33 29 C33.721875 29.2475 34.44375 29.495 35.1875 29.75 C39.83989957 31.81773314 43.07372525 34.23996107 45 39 C45.70077817 43.93804153 45.55558401 47.88883198 43.3125 52.375 C38.41490846 57.93442824 33.98598707 60.74339139 26.47314453 61.22705078 C25.20583496 61.21657715 23.93852539 61.20610352 22.6328125 61.1953125 C21.95322479 61.1924826 21.27363708 61.18965271 20.57345581 61.18673706 C18.42378392 61.17562964 16.27454386 61.15054391 14.125 61.125 C12.65886023 61.11495795 11.19271386 61.10583425 9.7265625 61.09765625 C6.15090369 61.07572159 2.57549406 61.04125814 -1 61 C-1 60.01 -1 59.02 -1 58 C-0.18942139 57.66282959 0.62115723 57.32565918 1.45629883 56.97827148 C4.16063197 55.30319941 4.16063197 55.30319941 4.48812866 52.90774536 C4.68119281 50.04449451 4.71883226 47.21749264 4.69921875 44.34765625 C4.70637405 43.29597763 4.71352936 42.24429901 4.72090149 41.16075134 C4.72868897 38.93570812 4.72364433 36.7105887 4.70678711 34.4855957 C4.68758803 31.07812372 4.72690282 27.67474224 4.77148438 24.26757812 C4.77177477 22.1067684 4.76863382 19.94595493 4.76171875 17.78515625 C4.77700119 16.76527115 4.79228363 15.74538605 4.80802917 14.69459534 C4.89727067 9.67135318 4.89727067 9.67135318 2.6131897 5.44503784 C0.8095425 4.16124191 0.8095425 4.16124191 -2 3 C-1.34 2.01 -0.68 1.02 0 0 Z M15 5 C15 11.93 15 18.86 15 26 C24.19983842 26.76570486 24.19983842 26.76570486 28.625 24.125 C31.51982086 20.31602518 31.81072682 18.06712995 31.53125 13.37890625 C30.7210396 9.75083176 28.9567594 8.13161724 26 6 C22.26213521 4.57836298 22.26213521 4.57836298 15 5 Z M15 32 C14.97112764 35.81248426 14.95324508 39.6249407 14.9375 43.4375 C14.92912109 44.52611328 14.92074219 45.61472656 14.91210938 46.73632812 C14.90888672 47.77080078 14.90566406 48.80527344 14.90234375 49.87109375 C14.89710693 50.82943115 14.89187012 51.78776855 14.88647461 52.77514648 C14.7494687 54.97285339 14.7494687 54.97285339 16 56 C20.55879398 56.43899498 24.69290165 56.55621206 28.9375 54.75 C32.82123572 51.56819046 32.82123572 51.56819046 34.21484375 46.8828125 C34.26999804 43.14457744 34.26894102 39.55303485 33 36 C28.62787199 32.5783346 25.7878562 31.77491805 20.2421875 31.890625 C18.76661377 31.91431152 18.76661377 31.91431152 17.26123047 31.93847656 C16.51502441 31.9587793 15.76881836 31.97908203 15 32 Z " fill="#B69864" transform="translate(92,270)"/>
<path d="M0 0 C5.69167049 -0.58376108 10.24193605 0.96498495 15 4 C17.06250587 6.22960704 18.43165317 8.36922468 20 11 C20.70125 10.38125 21.4025 9.7625 22.125 9.125 C28.15214689 4.6701523 33.78463368 4.74332689 41 5 C41.495 6.485 41.495 6.485 42 8 C38.37 9.98 34.74 11.96 31 14 C34.3 15.65 37.6 17.3 41 19 C41 19.66 41 20.32 41 21 C41.66 21 42.32 21 43 21 C43.99 23.97 44.98 26.94 46 30 C41.80434426 30 39.96913969 29.2710189 36.25 27.5 C35.26515625 27.0359375 34.2803125 26.571875 33.265625 26.09375 C32.51796875 25.7328125 31.7703125 25.371875 31 25 C31.30679688 25.59296875 31.61359375 26.1859375 31.9296875 26.796875 C34.71543723 32.53104598 35.31790997 37.74777064 35 44 C34.505 44.99 34.505 44.99 34 46 C33.34 46 32.68 46 32 46 C30.80179216 44.14956573 29.69105018 42.24209738 28.625 40.3125 C26.3536649 36.21509153 23.96235744 32.62445469 21 29 C18.52303725 38.17212895 17.49397701 46.82902971 17.3125 56.3125 C17.27833984 57.54162109 17.24417969 58.77074219 17.20898438 60.03710938 C17.12761173 63.02464808 17.05811109 66.01193409 17 69 C10.375 72 10.375 72 7 72 C6.70634865 64.40716549 7.58138423 57.33598294 8.9375 49.875 C9.30226314 47.81015707 9.66557517 45.7450572 10.02734375 43.6796875 C10.28233643 42.22900879 10.28233643 42.22900879 10.54248047 40.74902344 C11.13735802 37.17467916 11.58994294 33.59986933 12 30 C7.95834187 34.47307108 4.19826985 38.88276824 1 44 C-0.97655567 42.37768418 -1.93800807 41.58159702 -2.21484375 38.984375 C-1.50934043 33.30060175 -0.20784003 28.20784003 4 24 C-0.86896303 24.59619955 -5.32790951 25.56976822 -10 27 C-9.63343109 19.6686217 -9.63343109 19.6686217 -6.75 16.625 C-1.46694619 13.50319547 2.95841485 12.61439849 9 12 C9 11.34 9 10.68 9 10 C8.34 10 7.68 10 7 10 C7 9.34 7 8.68 7 8 C6.01 7.67 5.02 7.34 4 7 C4 6.34 4 5.68 4 5 C3.34 5 2.68 5 2 5 C2 4.34 2 3.68 2 3 C1.34 3 0.68 3 0 3 C0 2.01 0 1.02 0 0 Z " fill="#B79761" transform="translate(343,160)"/>
<path d="M0 0 C6.6 0 13.2 0 20 0 C20.33 1.32 20.66 2.64 21 4 C20.360625 4.103125 19.72125 4.20625 19.0625 4.3125 C18.0415625 4.6528125 18.0415625 4.6528125 17 5 C15.81597516 8.55207452 15.83785665 11.78722072 15.83203125 15.484375 C15.82870285 16.21819397 15.82537445 16.95201294 15.82194519 17.70806885 C15.81688469 19.26142756 15.81453659 20.81479712 15.81469727 22.36816406 C15.81252085 24.7273998 15.79438422 27.08616009 15.77539062 29.4453125 C15.77245438 30.95833174 15.77047113 32.4713532 15.76953125 33.984375 C15.76234573 34.68254333 15.75516022 35.38071167 15.74775696 36.10003662 C15.77524467 42.09046807 16.45017047 47.11507219 20.3125 51.8125 C24.66623463 55.35623749 28.18518321 56.48491869 33.875 56.3125 C37.7187799 55.74723825 40.89602774 54.32440319 44 52 C47.9584074 45.99854362 48.16359483 39.96917742 48.0546875 32.9609375 C48.04293488 32.19826569 48.03118225 31.43559387 48.01907349 30.64981079 C47.99044962 29.04447009 47.95830788 27.4391887 47.92285156 25.83398438 C47.89088424 24.19125549 47.86976967 22.54828045 47.859375 20.90527344 C47.84417185 18.5269312 47.79686119 16.15116088 47.7421875 13.7734375 C47.74298309 13.03902435 47.74377869 12.30461121 47.74459839 11.54794312 C47.72157816 9.22406916 47.72157816 9.22406916 47 6 C44.60206991 3.94762883 44.60206991 3.94762883 42 3 C42.33 2.01 42.66 1.02 43 0 C48.28 0 53.56 0 59 0 C59.495 1.98 59.495 1.98 60 4 C59.360625 4.268125 58.72125 4.53625 58.0625 4.8125 C55.66868314 5.88667752 55.66868314 5.88667752 55 9 C54.95071112 11.49346949 54.95617731 13.95779424 55.0078125 16.44921875 C55.02534303 17.95246704 55.04224993 19.45572271 55.05859375 20.95898438 C55.08941563 23.31783704 55.12477899 25.67631571 55.17138672 28.03491211 C55.21412282 30.31889258 55.2372837 32.60244436 55.2578125 34.88671875 C55.27643341 35.5797258 55.29505432 36.27273285 55.3142395 36.98674011 C55.35350639 44.60777879 52.72091142 51.06513994 48 57 C40.45933744 63.06531554 31.31236421 62.7316111 22 62 C15.32287438 60.39594377 10.66534077 56.78042265 7 51 C4.55505798 46.27519935 4.65487186 41.74096198 4.5859375 36.54296875 C4.56657135 35.64000565 4.5472052 34.73704254 4.5272522 33.80671692 C4.46765918 30.93373953 4.42115231 28.06072163 4.375 25.1875 C4.33680155 23.23500895 4.29774873 21.28253441 4.2578125 19.33007812 C4.16197431 14.55352016 4.07786848 9.77688333 4 5 C2.35 4.67 0.7 4.34 -1 4 C-0.67 2.68 -0.34 1.36 0 0 Z " fill="#B5935C" transform="translate(227,270)"/>
<path d="M0 0 C6.6 0 13.2 0 20 0 C20.495 1.98 20.495 1.98 21 4 C19.02 4.99 19.02 4.99 17 6 C16.97470627 12.94172388 16.95715696 19.88343594 16.94506836 26.82519531 C16.94003041 29.18815556 16.93319992 31.55111268 16.92456055 33.9140625 C16.91247146 37.30469535 16.90676641 40.69528709 16.90234375 44.0859375 C16.89718246 45.14743011 16.89202118 46.20892273 16.88670349 47.30258179 C16.88662796 48.28344757 16.88655243 49.26431335 16.88647461 50.27490234 C16.884254 51.14094086 16.88203339 52.00697937 16.87974548 52.89926147 C16.86446254 55.0583966 16.86446254 55.0583966 18 57 C18.99 57.33 19.98 57.66 21 58 C21 58.99 21 59.98 21 61 C13.74 61 6.48 61 -1 61 C-1 60.01 -1 59.02 -1 58 C-0.195625 57.731875 0.60875 57.46375 1.4375 57.1875 C2.283125 56.795625 3.12875 56.40375 4 56 C5.00005304 52.99984088 5.11575585 51.02576244 5.09765625 47.89453125 C5.09515869 47.00870361 5.09266113 46.12287598 5.09008789 45.21020508 C5.08098389 44.0889624 5.07187988 42.96771973 5.0625 41.8125 C5.041875 38.244375 5.02125 34.67625 5 31 C-4.57 31 -14.14 31 -24 31 C-24 30.67 -24 30.34 -24 30 C-22.02 29.67 -20.04 29.34 -18 29 C-20.64 29 -23.28 29 -26 29 C-26 28.34 -26 27.68 -26 27 C-10.655 26.505 -10.655 26.505 5 26 C5 19.07 5 12.14 5 5 C3.02 4.34 1.04 3.68 -1 3 C-0.67 2.01 -0.34 1.02 0 0 Z " fill="#B6975F" transform="translate(192,270)"/>
<path d="M0 0 C30.03 0 60.06 0 91 0 C91 1.32 91 2.64 91 4 C92.32 4.66 93.64 5.32 95 6 C65.96 6 36.92 6 7 6 C7.33 10.29 7.66 14.58 8 19 C8.06334996 22.94543526 8.09763527 26.86924125 8.0625 30.8125 C8.05798828 31.80314453 8.05347656 32.79378906 8.04882812 33.81445312 C8.03725686 36.20970461 8.0209623 38.60481558 8 41 C6 42 6 42 0 41 C0 27.47 0 13.94 0 0 Z " fill="#B5935A" transform="translate(171,171)"/>
<path d="M0 0 C6.6 0 13.2 0 20 0 C20.33 1.32 20.66 2.64 21 4 C19.35 4.66 17.7 5.32 16 6 C16 22.83 16 39.66 16 57 C17.98 57.66 19.96 58.32 22 59 C22 59.66 22 60.32 22 61 C14.41 61 6.82 61 -1 61 C-1 60.01 -1 59.02 -1 58 C0.32 58 1.64 58 3 58 C3.97639431 55.07081707 4.12136181 53.20974262 4.11352539 50.16137695 C4.11344986 49.1805867 4.11337433 48.19979645 4.11329651 47.18928528 C4.10813522 46.13295395 4.10297394 45.07662262 4.09765625 43.98828125 C4.09553383 42.36323921 4.09553383 42.36323921 4.09336853 40.70536804 C4.08776559 37.24105075 4.07521258 33.7767978 4.0625 30.3125 C4.05748538 27.96549572 4.05292241 25.61849044 4.04882812 23.27148438 C4.03779521 17.51430092 4.0210542 11.75715506 4 6 C1.525 5.01 1.525 5.01 -1 4 C-0.67 2.68 -0.34 1.36 0 0 Z " fill="#B79558" transform="translate(385,270)"/>
<path d="M0 0 C1.8871875 0.0309375 1.8871875 0.0309375 3.8125 0.0625 C4.79293964 3.00381891 4.92871202 4.88751665 4.91015625 7.94921875 C4.90693359 8.88701172 4.90371094 9.82480469 4.90039062 10.79101562 C4.89201172 11.76748047 4.88363281 12.74394531 4.875 13.75 C4.87048828 14.73806641 4.86597656 15.72613281 4.86132812 16.74414062 C4.8495432 19.18361958 4.83160783 21.62306741 4.8125 24.0625 C8.4425 24.0625 12.0725 24.0625 15.8125 24.0625 C15.8125 24.3925 15.8125 24.7225 15.8125 25.0625 C14.20375 25.2790625 14.20375 25.2790625 12.5625 25.5 C9.89587051 25.89999442 7.39850271 26.33841924 4.8125 27.0625 C5.1425 27.7225 5.4725 28.3825 5.8125 29.0625 C5.96516612 30.80118744 6.06182596 32.54497501 6.12890625 34.2890625 C6.19174805 35.8359375 6.19174805 35.8359375 6.25585938 37.4140625 C6.29517578 38.49429688 6.33449219 39.57453125 6.375 40.6875 C6.41818359 41.77546875 6.46136719 42.8634375 6.50585938 43.984375 C6.6121453 46.6769517 6.71418057 49.36962253 6.8125 52.0625 C8.7925 52.3925 10.7725 52.7225 12.8125 53.0625 C12.1525 54.0525 11.4925 55.0425 10.8125 56.0625 C8.0239711 56.28357787 5.46596819 56.34357535 2.6875 56.25 C1.55634766 56.22969727 1.55634766 56.22969727 0.40234375 56.20898438 C-1.46124127 56.17359985 -3.32445978 56.11979167 -5.1875 56.0625 C-5.6825 54.5775 -5.6825 54.5775 -6.1875 53.0625 C-5.6925 52.5675 -5.6925 52.5675 -5.1875 52.0625 C-5.08400436 50.57458626 -5.04899288 49.08182558 -5.04223633 47.59033203 C-5.03585648 46.63909454 -5.02947662 45.68785706 -5.02290344 44.70779419 C-5.02179062 43.67242523 -5.0206778 42.63705627 -5.01953125 41.5703125 C-5.01620285 40.51343231 -5.01287445 39.45655212 -5.00944519 38.36764526 C-5.00437087 36.12644894 -5.00203702 33.88524503 -5.00219727 31.64404297 C-5.00001378 28.20918337 -4.98187152 24.77464632 -4.96289062 21.33984375 C-4.95995626 19.16666777 -4.95797175 16.99349026 -4.95703125 14.8203125 C-4.94984573 13.788992 -4.94266022 12.75767151 -4.93525696 11.69509888 C-4.93833359 10.73755707 -4.94141022 9.78001526 -4.94458008 8.79345703 C-4.94244255 7.52890182 -4.94244255 7.52890182 -4.94026184 6.23880005 C-5.05283849 3.76915522 -5.05283849 3.76915522 -7.1875 1.0625 C-4.43671116 0.14557039 -2.82801087 -0.04636083 0 0 Z " fill="#B89860" transform="translate(101.1875,272.9375)"/>
<path d="M0 0 C43.89 0 87.78 0 133 0 C133 21.12 133 42.24 133 64 C132.67 64 132.34 64 132 64 C131.84615508 56.35928097 131.69797403 48.71846997 131.5570364 41.07750225 C131.49141618 37.52955293 131.4238406 33.98166325 131.35180664 30.43383789 C131.26909145 26.3557274 131.19486275 22.27750095 131.12109375 18.19921875 C131.08054115 16.28661507 131.08054115 16.28661507 131.03916931 14.33537292 C131.01907303 13.15437515 130.99897675 11.97337738 130.97827148 10.7565918 C130.94829323 9.19439156 130.94829323 9.19439156 130.91770935 7.60063171 C131 5 131 5 132 2 C131.06961411 2.03258408 130.13922821 2.06516815 129.1806488 2.09873962 C102.14933401 3.02013889 75.17930983 2.98833699 48.13793945 2.60510254 C41.97640578 2.51974987 35.81472372 2.44586175 29.65306854 2.36989594 C20.43524213 2.25504531 11.21770865 2.12626998 2 2 C2.33 15.2 2.66 28.4 3 42 C4.65 42.33 6.3 42.66 8 43 C6 44 4 45 2 46 C1.34 45.67 0.68 45.34 0 45 C0 30.15 0 15.3 0 0 Z " fill="#C1AE86" transform="translate(169,169)"/>
<path d="M0 0 C0.33 0.66 0.66 1.32 1 2 C3.02463255 2.65213292 3.02463255 2.65213292 5 3 C5 2.34 5 1.68 5 1 C5.66 1 6.32 1 7 1 C7 16.18 7 31.36 7 47 C5.02 46.34 3.04 45.68 1 45 C0.04211381 35.03560785 -0.12238132 25.18316073 -0.0625 15.1875 C-0.05746824 13.70507966 -0.05290834 12.22265764 -0.04882812 10.74023438 C-0.0379707 7.1601205 -0.02080135 3.58007157 0 0 Z " fill="#B49156" transform="translate(266,179)"/>
<path d="M0 0 C1.68125977 -0.01836914 1.68125977 -0.01836914 3.39648438 -0.03710938 C11.38974485 -0.05119028 19.35164637 0.0651694 25.9375 5.1875 C29.63667584 9.58651992 30.39397158 12.48160528 29.9375 18.1875 C29.6075 18.1875 29.2775 18.1875 28.9375 18.1875 C28.793125 17.424375 28.64875 16.66125 28.5 15.875 C27.9742406 13.10577092 27.9742406 13.10577092 26.9375 10.1875 C25.02083333 9.02083333 25.02083333 9.02083333 22.9375 8.1875 C22.2775 7.8575 21.6175 7.5275 20.9375 7.1875 C21.5253125 8.363125 21.5253125 8.363125 22.125 9.5625 C23.25705601 14.61321141 22.23450533 18.57672289 19.9375 23.1875 C17.25 24.8125 17.25 24.8125 14.9375 25.1875 C15.42347656 24.630625 15.90945312 24.07375 16.41015625 23.5 C18.97205632 19.62111294 18.5655799 15.67378501 17.9375 11.1875 C16.79748345 8.46267874 16.79748345 8.46267874 13.9375 7.1875 C10.26969692 6.27978471 6.6901617 5.72359453 2.9375 5.1875 C2.9375 12.1175 2.9375 19.0475 2.9375 26.1875 C5.5775 26.1875 8.2175 26.1875 10.9375 26.1875 C10.9375 26.5175 10.9375 26.8475 10.9375 27.1875 C7.9675 27.1875 4.9975 27.1875 1.9375 27.1875 C1.6075 19.2675 1.2775 11.3475 0.9375 3.1875 C-1.7025 3.5175 -4.3425 3.8475 -7.0625 4.1875 C-9.0621812 4.22320859 -11.06312471 4.23748438 -13.0625 4.1875 C-13.0625 -2.44212022 -5.13769441 0.00288472 0 0 Z " fill="#B59A6B" transform="translate(104.0625,269.8125)"/>
<path d="M0 0 C5 1 5 1 6.625 2.9375 C7.07875 3.618125 7.5325 4.29875 8 5 C8.99 5.66 9.98 6.32 11 7 C11.33 4.69 11.66 2.38 12 0 C13.65 0 15.3 0 17 0 C17 6.27 17 12.54 17 19 C12 19 12 19 9.98046875 17.03125 C9.38878906 16.1959375 8.79710937 15.360625 8.1875 14.5 C7.28064453 13.24703125 7.28064453 13.24703125 6.35546875 11.96875 C5.90816406 11.3190625 5.46085938 10.669375 5 10 C5 12.64 5 15.28 5 18 C3.35 18.33 1.7 18.66 0 19 C0 12.73 0 6.46 0 0 Z " fill="#B39665" transform="translate(202,354)"/>
<path d="M0 0 C2.76727654 2.94581051 3.24861075 5.64340603 3.5 9.5625 C3.36936915 12.97594101 3.19460515 13.76411497 0.9375 16.5 C-2.55094078 18.28133146 -5.07820186 18.92996789 -9 19 C-12.57387602 17.41161066 -13.81089572 16.28365642 -16 13 C-16.54550398 9.93369345 -16.53290342 7.06823181 -16 4 C-13.89342904 1.19123872 -12.24860052 -0.37569974 -9.125 -1.9375 C-5.71055328 -2.0379249 -3.16005772 -1.26402309 0 0 Z M-9.6875 4.125 C-11.57260027 6.81800039 -11.34122999 8.79243812 -11 12 C-10.34 12.66 -9.68 13.32 -9 14 C-5.90073181 13.67801034 -5.90073181 13.67801034 -3 13 C-1.793413 8.34882582 -1.793413 8.34882582 -3.25 4.0625 C-5.71128017 2.56815132 -7.27846083 2.51897389 -9.6875 4.125 Z " fill="#B9A274" transform="translate(288,355)"/>
<path d="M0 0 C2.96559127 3.837824 3.61023636 7.21981518 3 12 C1.72311154 14.80915461 0.68900183 16.50106764 -1.8125 18.3125 C-4.82239992 19.25846855 -6.85198036 19.44072275 -10 19 C-14.34731224 16.58482653 -14.34731224 16.58482653 -16 14 C-16.760031 9.45429077 -16.45331587 5.35994762 -15 1 C-10.47305403 -3.23488494 -5.35571825 -2.2036549 0 0 Z M-10.75 4.1875 C-12.44316113 6.64258364 -12.4387102 8.07526531 -12 11 C-10.93654948 12.98029682 -10.93654948 12.98029682 -9 14 C-6.39351495 14.16210219 -6.39351495 14.16210219 -4 13 C-2.32221688 10.80581563 -2.32221688 10.80581563 -2 8 C-2.97477807 5.12497747 -2.97477807 5.12497747 -5 3 C-8.80082707 2.62566572 -8.80082707 2.62566572 -10.75 4.1875 Z " fill="#B59765" transform="translate(266,355)"/>
<path d="M0 0 C1.65 0 3.3 0 5 0 C5 2.31 5 4.62 5 7 C7.31 7 9.62 7 12 7 C12 4.69 12 2.38 12 0 C13.65 0.33 15.3 0.66 17 1 C17 6.94 17 12.88 17 19 C16.01 19.33 15.02 19.66 14 20 C13.34 19.67 12.68 19.34 12 19 C12 16.69 12 14.38 12 12 C9.69 12 7.38 12 5 12 C5 14.31 5 16.62 5 19 C3.35 19 1.7 19 0 19 C0 12.73 0 6.46 0 0 Z " fill="#C1AA7E" transform="translate(171,354)"/>
<path d="M0 0 C2.475 0.495 2.475 0.495 5 1 C5 2.98 5 4.96 5 7 C7.31 7 9.62 7 12 7 C12 4.69 12 2.38 12 0 C13.65 0.33 15.3 0.66 17 1 C17 6.94 17 12.88 17 19 C15.35 19 13.7 19 12 19 C12 16.69 12 14.38 12 12 C9.69 12 7.38 12 5 12 C5 14.31 5 16.62 5 19 C3.35 19 1.7 19 0 19 C0 12.73 0 6.46 0 0 Z " fill="#AE935C" transform="translate(101,354)"/>
<path d="M0 0 C0.33 4.95 0.66 9.9 1 15 C2.65 14.67 4.3 14.34 6 14 C6.33 9.71 6.66 5.42 7 1 C8.65 1.33 10.3 1.66 12 2 C12.05441656 3.89551022 12.09298035 5.7914792 12.125 7.6875 C12.14820313 8.74324219 12.17140625 9.79898437 12.1953125 10.88671875 C11.9948036 14.08283066 11.49234713 16.17837678 10 19 C6.28986601 21.47342266 4.38939738 21.38503486 0 21 C-2.4500882 19.7104799 -3.66600611 18.94304157 -4.59765625 16.3125 C-5.12776407 13.26566672 -5.09340739 10.34073917 -5.0625 7.25 C-5.05347656 6.07953125 -5.04445313 4.9090625 -5.03515625 3.703125 C-5.02355469 2.81109375 -5.01195313 1.9190625 -5 1 C-2 0 -2 0 0 0 Z " fill="#B6996A" transform="translate(127,353)"/>
<path d="M0 0 C0.33 0 0.66 0 1 0 C0.99666908 0.97052811 0.99666908 0.97052811 0.99327087 1.96066284 C0.97120032 8.67608083 0.95608596 15.39148856 0.94506836 22.10693359 C0.94002997 24.61540139 0.93319916 27.12386624 0.92456055 29.63232422 C0.91247339 33.2314527 0.90676685 36.83054247 0.90234375 40.4296875 C0.89718246 41.55680145 0.89202118 42.68391541 0.88670349 43.84518433 C0.88662796 44.88611237 0.88655243 45.92704041 0.88647461 46.99951172 C0.88314369 48.37851151 0.88314369 48.37851151 0.87974548 49.78536987 C0.85489471 52.04150588 0.85489471 52.04150588 2 54 C-2.95 54.495 -2.95 54.495 -8 55 C-8.94730802 52.15807593 -9.10589384 50.5254013 -9.0534668 47.59204102 C-9.0398259 46.70424454 -9.026185 45.81644806 -9.01213074 44.90174866 C-8.99136978 43.94546066 -8.97060883 42.98917267 -8.94921875 42.00390625 C-8.9303511 41.01881577 -8.91148346 40.03372528 -8.89204407 39.01878357 C-8.850163 36.93490928 -8.8054257 34.85109074 -8.75805664 32.76733398 C-8.6878572 29.57872501 -8.6335101 26.39010036 -8.58007812 23.20117188 C-8.53742872 21.17706265 -8.49384015 19.15297296 -8.44921875 17.12890625 C-8.43453049 16.17464249 -8.41984222 15.22037872 -8.40470886 14.23719788 C-8.38161148 13.34624924 -8.3585141 12.4553006 -8.3347168 11.53735352 C-8.31837692 10.75586441 -8.30203705 9.97437531 -8.28520203 9.16920471 C-8 7 -8 7 -6 3 C-6 18.18 -6 33.36 -6 49 C-1.00226406 45.78694866 -1.00226406 45.78694866 -0.36076355 42.81060791 C-0.35410172 42.02007019 -0.34743988 41.22953247 -0.34057617 40.41503906 C-0.32093307 39.51440735 -0.30128998 38.61377563 -0.28105164 37.68585205 C-0.28498428 36.72217712 -0.28891693 35.7585022 -0.29296875 34.765625 C-0.27784744 33.77246277 -0.26272614 32.77930054 -0.24714661 31.75604248 C-0.20419423 28.58713206 -0.19542413 25.4191728 -0.1875 22.25 C-0.16436163 20.100235 -0.13899768 17.95049271 -0.11132812 15.80078125 C-0.0484018 10.53384523 -0.01352718 5.26728202 0 0 Z " fill="#AD8D56" transform="translate(398,275)"/>
<path d="M0 0 C0 0.99 0 1.98 0 3 C0.66 3.33 1.32 3.66 2 4 C1.67 4.66 1.34 5.32 1 6 C3.31 6 5.62 6 8 6 C8 6.33 8 6.66 8 7 C6.70707031 7.15855469 5.41414063 7.31710938 4.08203125 7.48046875 C-5.25576159 8.7053627 -13.70382096 10.1055405 -22.37109375 13.9140625 C-24.92388243 14.96855767 -27.28115639 15.55590576 -30 16 C-29.34 14.68 -28.68 13.36 -28 12 C-27.34 12 -26.68 12 -26 12 C-26 11.34 -26 10.68 -26 10 C-19.64385267 4.74077644 -8.48106584 -2.82702195 0 0 Z " fill="#6DA5B4" transform="translate(166,218)"/>
<path d="M0 0 C0.33 0 0.66 0 1 0 C1 21.45 1 42.9 1 65 C-6 65 -6 65 -9 64 C-9 45.52 -9 27.04 -9 8 C-8.01 8.495 -8.01 8.495 -7 9 C-6.67 26.16 -6.34 43.32 -6 61 C-4.35 61.33 -2.7 61.66 -1 62 C-0.67 41.54 -0.34 21.08 0 0 Z " fill="#B39973" transform="translate(302,170)"/>
<path d="M0 0 C2.26171875 0.00390625 2.26171875 0.00390625 5 1 C6.69891127 3.46415864 7.72500214 6.15993923 8.8125 8.9375 C9.12380859 9.67935547 9.43511719 10.42121094 9.75585938 11.18554688 C12 16.62573832 12 16.62573832 12 19 C9.625 19.1875 9.625 19.1875 7 19 C6.34 18.01 5.68 17.02 5 16 C1.91634129 15.7497843 1.91634129 15.7497843 -1 16 C-1.33 16.99 -1.66 17.98 -2 19 C-3.98 19 -5.96 19 -8 19 C-6.60121198 14.53202662 -4.86369228 10.36177921 -2.875 6.125 C-2.33617187 4.97257812 -1.79734375 3.82015625 -1.2421875 2.6328125 C-0.62730469 1.32957031 -0.62730469 1.32957031 0 0 Z M2 8 C1.67 8.99 1.34 9.98 1 11 C1.99 10.67 2.98 10.34 4 10 C3.34 9.34 2.68 8.68 2 8 Z " fill="#B49966" transform="translate(148,354)"/>
<path d="M0 0 C2.29296875 0.07421875 2.29296875 0.07421875 5 1 C6.39167299 3.33354278 7.35954081 5.31066781 8.3125 7.8125 C8.57611328 8.44220703 8.83972656 9.07191406 9.11132812 9.72070312 C10.46529791 13.07221794 11 15.33158074 11 19 C9.35 19 7.7 19 6 19 C5.67 18.01 5.34 17.02 5 16 C2.08365871 15.7497843 2.08365871 15.7497843 -1 16 C-1.66 16.99 -2.32 17.98 -3 19 C-4.32 19 -5.64 19 -7 19 C-6.4253379 14.21357393 -5.01754357 10.46211213 -2.9375 6.125 C-2.38964844 4.97257812 -1.84179688 3.82015625 -1.27734375 2.6328125 C-0.85582031 1.76398438 -0.43429687 0.89515625 0 0 Z M1 9 C1 9.66 1 10.32 1 11 C1.66 11 2.32 11 3 11 C3 10.34 3 9.68 3 9 C2.34 9 1.68 9 1 9 Z " fill="#AF8A51" transform="translate(389,354)"/>
<path d="M0 0 C7.1595284 0.55557102 7.1595284 0.55557102 10.48046875 2.76953125 C12.17141321 5.53653127 12.49239797 6.83488513 11.85546875 10.01953125 C10.23046875 12.33203125 10.23046875 12.33203125 7.85546875 14.01953125 C4.60546875 14.26953125 4.60546875 14.26953125 1.85546875 14.01953125 C1.85546875 15.99953125 1.85546875 17.97953125 1.85546875 20.01953125 C0.86546875 20.34953125 -0.12453125 20.67953125 -1.14453125 21.01953125 C-1.80453125 20.68953125 -2.46453125 20.35953125 -3.14453125 20.01953125 C-3.17341639 16.87371702 -3.19129048 13.72793656 -3.20703125 10.58203125 C-3.21541016 9.68419922 -3.22378906 8.78636719 -3.23242188 7.86132812 C-3.23564453 7.00732422 -3.23886719 6.15332031 -3.2421875 5.2734375 C-3.25004272 4.08729858 -3.25004272 4.08729858 -3.25805664 2.87719727 C-3.09196673 0.15939478 -2.72161295 0.024787 0 0 Z M1.85546875 5.01953125 C1.85546875 6.66953125 1.85546875 8.31953125 1.85546875 10.01953125 C3.50546875 9.68953125 5.15546875 9.35953125 6.85546875 9.01953125 C6.52546875 7.69953125 6.19546875 6.37953125 5.85546875 5.01953125 C4.53546875 5.01953125 3.21546875 5.01953125 1.85546875 5.01953125 Z " fill="#BEA577" transform="translate(235.14453125,352.98046875)"/>
<path d="M0 0 C1.65 0 3.3 0 5 0 C6.32 3.3 7.64 6.6 9 10 C9.556875 8.535625 10.11375 7.07125 10.6875 5.5625 C11.77734375 3.0703125 11.77734375 3.0703125 13 1 C15.75 -0.0625 15.75 -0.0625 18 0 C17.39124245 4.60416626 16.15277044 8.56483324 14.4375 12.875 C13.98246094 14.02742188 13.52742188 15.17984375 13.05859375 16.3671875 C12.70925781 17.23601562 12.35992187 18.10484375 12 19 C10.35 19 8.7 19 7 19 C3.56203749 12.71456473 1.25353319 7.06536889 0 0 Z " fill="#B5925C" transform="translate(318,354)"/>
<path d="M0 0 C1.32 0.33 2.64 0.66 4 1 C4 17.17 4 33.34 4 50 C-0.19040269 51.3968009 -2.12766676 49.86445675 -6 48 C-7 47 -7 47 -7.12025452 45.20933533 C-7.11803391 44.42990067 -7.11581329 43.650466 -7.11352539 42.84741211 C-7.11341209 41.52615578 -7.11341209 41.52615578 -7.11329651 40.1782074 C-7.10555458 38.74227989 -7.10555458 38.74227989 -7.09765625 37.27734375 C-7.0962413 36.30213272 -7.09482635 35.32692169 -7.09336853 34.32215881 C-7.08775133 31.19390857 -7.07519593 28.06572877 -7.0625 24.9375 C-7.05748722 22.82226666 -7.05292393 20.70703219 -7.04882812 18.59179688 C-7.03777631 13.39450704 -7.02102146 8.19725855 -7 3 C-6.67 3 -6.34 3 -6 3 C-5.67 17.19 -5.34 31.38 -5 46 C-3.02 46.66 -1.04 47.32 1 48 C0.67 32.16 0.34 16.32 0 0 Z " fill="#E2BB8B" transform="translate(272,178)"/>
<path d="M0 0 C5.28 0 10.56 0 16 0 C16.33 1.32 16.66 2.64 17 4 C16.05833984 4.34417969 16.05833984 4.34417969 15.09765625 4.6953125 C12.31484348 6.42614949 12.17828965 7.73479734 11.4375 10.875 C10.29012221 15.64980198 10.29012221 15.64980198 8.453125 17.8671875 C6.3660117 20.93053122 6.48218565 23.58478995 6.3125 27.25 C6.24675781 28.51328125 6.18101562 29.7765625 6.11328125 31.078125 C6.07589844 32.04234375 6.03851563 33.0065625 6 34 C5.67 34 5.34 34 5 34 C4.99589111 33.16750732 4.99178223 32.33501465 4.98754883 31.47729492 C4.96056043 28.38485594 4.91147084 25.29378027 4.84741211 22.2019043 C4.81283954 20.20709134 4.80375406 18.21188986 4.79492188 16.21679688 C4.76591797 14.96318359 4.73691406 13.70957031 4.70703125 12.41796875 C4.6913208 11.26063232 4.67561035 10.1032959 4.65942383 8.91088867 C4.28152855 5.78150334 4.28152855 5.78150334 1.45581055 4.09887695 C0.24018433 3.55493286 0.24018433 3.55493286 -1 3 C-0.67 2.01 -0.34 1.02 0 0 Z " fill="#CA9C7A" transform="translate(270,270)"/>
<path d="M0 0 C3.51166495 1.56073998 6.37910355 3.16069552 9 6 C9.91654131 9.81892213 9.88887006 13.34474198 8.0078125 16.84765625 C5.68520101 19.78337947 3.30430703 21.4048173 0 23 C-1.26804566 25.0335948 -1.26804566 25.0335948 -2 27 C-2 26.34 -2 25.68 -2 25 C-3.32 24.67 -4.64 24.34 -6 24 C-5.8125 21.625 -5.8125 21.625 -5 19 C-4.18789062 18.73574219 -3.37578125 18.47148437 -2.5390625 18.19921875 C0.26090829 17.23682201 0.26090829 17.23682201 0.99609375 14.35546875 C1.14175781 13.31003906 1.28742188 12.26460938 1.4375 11.1875 C1.60121094 10.14980469 1.76492187 9.11210937 1.93359375 8.04296875 C2.00419883 4.80759465 1.41120896 2.88099641 0 0 Z " fill="#B39259" transform="translate(124,276)"/>
<path d="M0 0 C0.66 0.66 1.32 1.32 2 2 C2.66 1.67 3.32 1.34 4 1 C3.84402344 2.27101562 3.68804687 3.54203125 3.52734375 4.8515625 C2.85217909 10.91024575 2.66363294 16.97594672 2.48242188 23.06640625 C2.44826172 23.91847656 2.41410156 24.77054688 2.37890625 25.6484375 C2.3538501 26.41333496 2.32879395 27.17823242 2.30297852 27.96630859 C2 30 2 30 0 33 C-0.99 32.67 -1.98 32.34 -3 32 C-4.48159822 27.55520533 -3.91746375 23.32772737 -3.6875 18.6875 C-3.65205078 17.74970703 -3.61660156 16.81191406 -3.58007812 15.84570312 C-3.3077649 10.0783529 -2.61515257 5.23030514 0 0 Z " fill="#B39561" transform="translate(356,195)"/>
<path d="M0 0 C2 3 2 3 2 5 C3.32 5 4.64 5 6 5 C5.84660156 6.03125 5.69320313 7.0625 5.53515625 8.125 C4.75186577 14.39132386 4.64061013 20.69359689 4.4375 27 C4.39431641 28.25167969 4.35113281 29.50335938 4.30664062 30.79296875 C4.20121983 33.86188523 4.09909658 36.93087389 4 40 C-2.625 43 -2.625 43 -6 43 C-6.31918373 35.14453364 -5.35709504 27.73059495 -4 20 C-3.67 20 -3.34 20 -3 20 C-3.03480469 21.12019531 -3.06960938 22.24039063 -3.10546875 23.39453125 C-3.13360839 24.86717251 -3.16090837 26.33982998 -3.1875 27.8125 C-3.21263672 28.55048828 -3.23777344 29.28847656 -3.26367188 30.04882812 C-3.38068437 34.32017538 -3.38068437 34.32017538 -1.48828125 38.01171875 C-0.99714844 38.33785156 -0.50601562 38.66398437 0 39 C0.90808092 36.27575724 1.17039409 34.4356845 1.28125 31.61328125 C1.31863281 30.75669922 1.35601562 29.90011719 1.39453125 29.01757812 C1.44673828 27.67856445 1.44673828 27.67856445 1.5 26.3125 C1.74551541 20.15188174 2.14663463 14.10867381 3 8 C2.01 8 1.02 8 0 8 C-1.09658936 4.71023192 -0.79953138 3.28696233 0 0 Z " fill="#B8A684" transform="translate(356,189)"/>
<path d="M0 0 C1.46373047 0.02707031 1.46373047 0.02707031 2.95703125 0.0546875 C3.69308594 0.07789063 4.42914063 0.10109375 5.1875 0.125 C5.1875 0.785 5.1875 1.445 5.1875 2.125 C4.548125 2.393125 3.90875 2.66125 3.25 2.9375 C0.85618314 4.01167752 0.85618314 4.01167752 0.1875 7.125 C-1.4625 7.455 -3.1125 7.785 -4.8125 8.125 C-3.8225 8.785 -2.8325 9.445 -1.8125 10.125 C-3.5759375 10.558125 -3.5759375 10.558125 -5.375 11 C-9.2143927 11.95813721 -13.0138318 13.01705511 -16.8125 14.125 C-16.44593109 6.7936217 -16.44593109 6.7936217 -13.5625 3.75 C-8.91581949 1.00423425 -5.42490954 -0.13072071 0 0 Z " fill="#B59864" transform="translate(349.8125,172.875)"/>
<path d="M0 0 C7.47120084 -0.44164734 12.94025413 -0.71313568 19 4 C19.33 4.99 19.66 5.98 20 7 C20.99 7.66 21.98 8.32 23 9 C23 9.66 23 10.32 23 11 C23.99 11.33 24.98 11.66 26 12 C25.67 12.66 25.34 13.32 25 14 C22.525 13.505 22.525 13.505 20 13 C20 12.34 20 11.68 20 11 C18.576875 11.2784375 18.576875 11.2784375 17.125 11.5625 C14 12 14 12 12 11 C12 10.01 12 9.02 12 8 C11.2575 7.71125 10.515 7.4225 9.75 7.125 C7.43260203 6.17697356 5.22082885 5.15154089 3 4 C3 3.34 3 2.68 3 2 C2.01 2 1.02 2 0 2 C0 1.34 0 0.68 0 0 Z " fill="#B6945B" transform="translate(279,146)"/>
<path d="M0 0 C1.46801758 1.04418945 1.46801758 1.04418945 3 3 C3.3307063 5.50728032 3.4882718 7.78137387 3.51171875 10.29296875 C3.52966995 10.99899734 3.54762115 11.70502594 3.56611633 12.43244934 C3.62023178 14.68407241 3.65411722 16.93548343 3.6875 19.1875 C3.72067219 20.71552431 3.75516177 22.24352063 3.79101562 23.77148438 C3.87595825 27.51416989 3.94276248 31.25679241 4 35 C2.33333333 35 0.66666667 35 -1 35 C-1.79706768 31.50007304 -2.11863027 28.2857769 -2.09765625 24.69921875 C-2.09443359 23.72275391 -2.09121094 22.74628906 -2.08789062 21.74023438 C-2.07951172 20.73283203 -2.07113281 19.72542969 -2.0625 18.6875 C-2.05798828 17.66076172 -2.05347656 16.63402344 -2.04882812 15.57617188 C-2.03708184 13.05072118 -2.02065565 10.52539095 -2 8 C-1.67 8 -1.34 8 -1 8 C-0.67 5.36 -0.34 2.72 0 0 Z " fill="#B1915C" transform="translate(278,278)"/>
<path d="M0 0 C5.69167049 -0.58376108 10.24193605 0.96498495 15 4 C17.06250587 6.22960704 18.43165317 8.36922468 20 11 C20.66 10.67 21.32 10.34 22 10 C21.67 10.99 21.34 11.98 21 13 C17.4375 14.1875 17.4375 14.1875 14 15 C13.67 13.68 13.34 12.36 13 11 C12.34 11 11.68 11 11 11 C10.67 11.66 10.34 12.32 10 13 C9.67 12.01 9.34 11.02 9 10 C8.34 10 7.68 10 7 10 C7 9.34 7 8.68 7 8 C6.01 7.67 5.02 7.34 4 7 C4 6.34 4 5.68 4 5 C3.34 5 2.68 5 2 5 C2 4.34 2 3.68 2 3 C1.34 3 0.68 3 0 3 C0 2.01 0 1.02 0 0 Z " fill="#B79966" transform="translate(343,160)"/>
<path d="M0 0 C1.67542976 0.28604898 3.34385343 0.61781233 5 1 C5.027193 2.58323688 5.04648306 4.16661062 5.0625 5.75 C5.07410156 6.63171875 5.08570313 7.5134375 5.09765625 8.421875 C5 11 5 11 4 15 C6.97 15 9.94 15 13 15 C13 16.32 13 17.64 13 19 C8.38 19 3.76 19 -1 19 C-1.02683987 16.02077407 -1.04676037 13.04178705 -1.0625 10.0625 C-1.07087891 9.21236328 -1.07925781 8.36222656 -1.08789062 7.48632812 C-1.09111328 6.67744141 -1.09433594 5.86855469 -1.09765625 5.03515625 C-1.10289307 4.2862915 -1.10812988 3.53742676 -1.11352539 2.76586914 C-1 1 -1 1 0 0 Z " fill="#B1935B" transform="translate(366,354)"/>
<path d="M0 0 C1.5631897 0.00785522 1.5631897 0.00785522 3.15795898 0.01586914 C4.28266602 0.0190918 5.40737305 0.02231445 6.56616211 0.02563477 C7.75016602 0.03401367 8.93416992 0.04239258 10.15405273 0.05102539 C11.34192383 0.05553711 12.52979492 0.06004883 13.75366211 0.06469727 C16.69967499 0.07652864 19.64558954 0.09301252 22.59155273 0.11352539 C22.59155273 1.44685872 22.59155273 2.78019206 22.59155273 4.11352539 C19.29155273 4.11352539 15.99155273 4.11352539 12.59155273 4.11352539 C12.59155273 11.37352539 12.59155273 18.63352539 12.59155273 26.11352539 C15.23155273 26.11352539 17.87155273 26.11352539 20.59155273 26.11352539 C20.59155273 26.44352539 20.59155273 26.77352539 20.59155273 27.11352539 C17.62155273 27.11352539 14.65155273 27.11352539 11.59155273 27.11352539 C11.26155273 19.19352539 10.93155273 11.27352539 10.59155273 3.11352539 C7.95155273 3.44352539 5.31155273 3.77352539 2.59155273 4.11352539 C0.59187154 4.14923398 -1.40907197 4.16350977 -3.40844727 4.11352539 C-3.40844727 0.16066173 -3.40844727 0.16066173 0 0 Z " fill="#D5C8A4" transform="translate(94.408447265625,269.886474609375)"/>
<path d="M0 0 C2.475 0.495 2.475 0.495 5 1 C5 5.62 5 10.24 5 15 C7.64 15 10.28 15 13 15 C13 16.32 13 17.64 13 19 C8.71 19 4.42 19 0 19 C0 12.73 0 6.46 0 0 Z " fill="#A88C56" transform="translate(295,354)"/>
<path d="M0 0 C0.33 0 0.66 0 1 0 C1.02505615 1.1144751 1.0501123 2.2289502 1.07592773 3.37719727 C1.17051694 7.53518007 1.27060926 11.69301575 1.37231445 15.85083008 C1.41546937 17.64604232 1.45715705 19.44129048 1.49731445 21.23657227 C1.55549113 23.82579343 1.61904571 26.41483701 1.68359375 29.00390625 C1.70030624 29.79898087 1.71701874 30.59405548 1.73423767 31.41322327 C1.82798891 34.9867763 2.05183263 38.3340629 2.60180664 41.87866211 C3 45 3 45 1.6875 47.9375 C0.8521875 48.9584375 0.8521875 48.9584375 0 50 C-0.66 50 -1.32 50 -2 50 C-2.33 50.66 -2.66 51.32 -3 52 C-4.32 50.35 -5.64 48.7 -7 47 C-6.67 46.34 -6.34 45.68 -6 45 C-5.1028125 45.2784375 -5.1028125 45.2784375 -4.1875 45.5625 C-1.83591238 46.22093687 -1.83591238 46.22093687 1 45 C0.68337402 44.44054687 0.36674805 43.88109375 0.04052734 43.3046875 C-3.59233086 35.25818786 -1.99904597 24.57500398 -1.625 16 C-1.55925781 14.18048828 -1.55925781 14.18048828 -1.4921875 12.32421875 C-1.13502489 3.40507467 -1.13502489 3.40507467 0 0 Z " fill="#BCA073" transform="translate(241,274)"/>
<path d="M0 0 C0.33 0.99 0.66 1.98 1 3 C-2.63 4.98 -6.26 6.96 -10 9 C-9.34 9.66 -8.68 10.32 -8 11 C-11.81884554 11.21821974 -14.65842753 10.94925061 -18 9 C-18.8125 6.375 -18.8125 6.375 -19 4 C-12.511583 0.48935892 -7.35174806 -0.55253221 0 0 Z " fill="#B79C6B" transform="translate(384,165)"/>
<path d="M0 0 C0 2.31 0 4.62 0 7 C0.99 7 1.98 7 3 7 C3.33 6.01 3.66 5.02 4 4 C4.99 5.485 4.99 5.485 6 7 C3.71125827 8.33858524 1.41930344 9.67101014 -0.875 11 C-1.52597656 11.3815625 -2.17695313 11.763125 -2.84765625 12.15625 C-7.7734375 15 -7.7734375 15 -10 15 C-10 12.33333333 -10 9.66666667 -10 7 C-10.99 6.67 -11.98 6.34 -13 6 C-11.21118264 4.99491199 -9.41885304 3.99607264 -7.625 3 C-6.62726563 2.443125 -5.62953125 1.88625 -4.6015625 1.3125 C-2 0 -2 0 0 0 Z " fill="#B89E6C" transform="translate(198,137)"/>
<path d="M0 0 C1.98 0.495 1.98 0.495 4 1 C4 5.95 4 10.9 4 16 C6.97 16 9.94 16 13 16 C13 17.32 13 18.64 13 20 C8.71 20 4.42 20 0 20 C-0.19380249 16.85443644 -0.38033742 13.70874005 -0.5625 10.5625 C-0.61857422 9.66466797 -0.67464844 8.76683594 -0.73242188 7.84179688 C-0.78076172 6.98779297 -0.82910156 6.13378906 -0.87890625 5.25390625 C-0.9260376 4.46314697 -0.97316895 3.6723877 -1.02172852 2.85766602 C-1 1 -1 1 0 0 Z " fill="#B09261" transform="translate(349,353)"/>
<path d="M0 0 C0.33 0 0.66 0 1 0 C1.33 16.5 1.66 33 2 50 C3.98 50.66 5.96 51.32 8 52 C8 52.66 8 53.32 8 54 C0.41 54 -7.18 54 -15 54 C-15 53.01 -15 52.02 -15 51 C-13.68 51 -12.36 51 -11 51 C-10.67 50.01 -10.34 49.02 -10 48 C-9.67 49.32 -9.34 50.64 -9 52 C-4.545 51.505 -4.545 51.505 0 51 C-0.495 49.515 -0.495 49.515 -1 48 C-1.05960315 46.41883102 -1.05909507 44.83502452 -1.02172852 43.25317383 C-0.99158409 41.81201958 -0.99158409 41.81201958 -0.96083069 40.3417511 C-0.93379562 39.30729355 -0.90676056 38.272836 -0.87890625 37.20703125 C-0.85529526 36.14586594 -0.83168427 35.08470062 -0.80735779 33.99137878 C-0.73071549 30.5982833 -0.64669324 27.20541571 -0.5625 23.8125 C-0.5092799 21.51368307 -0.4565395 19.21485498 -0.40429688 16.91601562 C-0.27509954 11.2772024 -0.1398408 5.63855877 0 0 Z " fill="#BBA47D" transform="translate(399,277)"/>
<path d="M0 0 C1.65 0 3.3 0 5 0 C5 2.31 5 4.62 5 7 C7.31 7 9.62 7 12 7 C12.33 6.34 12.66 5.68 13 5 C13 5.99 13 6.98 13 8 C8.545 8.495 8.545 8.495 4 9 C4 9.66 4 10.32 4 11 C6.64 11 9.28 11 12 11 C12 11.33 12 11.66 12 12 C9.69 12 7.38 12 5 12 C5 14.31 5 16.62 5 19 C3.35 19 1.7 19 0 19 C0 12.73 0 6.46 0 0 Z " fill="#C8AC85" transform="translate(171,354)"/>
<path d="M0 0 C0.33 0 0.66 0 1 0 C1.33 5.28 1.66 10.56 2 16 C2.99 15.67 3.98 15.34 5 15 C5.33 16.65 5.66 18.3 6 20 C8.31 20.66 10.62 21.32 13 22 C12.67 22.66 12.34 23.32 12 24 C6.06 24 0.12 24 -6 24 C-6 23.01 -6 22.02 -6 21 C-5.360625 20.87625 -4.72125 20.7525 -4.0625 20.625 C-3.381875 20.41875 -2.70125 20.2125 -2 20 C-0.88176185 17.76352369 -0.80603939 16.35108471 -0.68359375 13.8671875 C-0.64169922 13.06152344 -0.59980469 12.25585938 -0.55664062 11.42578125 C-0.51732422 10.58402344 -0.47800781 9.74226563 -0.4375 8.875 C-0.37272461 7.60076172 -0.37272461 7.60076172 -0.30664062 6.30078125 C-0.20045764 4.20071777 -0.09971503 2.10038052 0 0 Z " fill="#C7AE87" transform="translate(302,307)"/>
<path d="M0 0 C1.65 0.33 3.3 0.66 5 1 C5.05441656 2.89551022 5.09298035 4.7914792 5.125 6.6875 C5.14820313 7.74324219 5.17140625 8.79898437 5.1953125 9.88671875 C4.99535169 13.07409401 4.52343305 15.20031343 3 18 C-0.47823115 19.15941038 -2.45895578 18.70820884 -6 18 C-6 17.34 -6 16.68 -6 16 C-5.19175781 15.60167969 -4.38351563 15.20335937 -3.55078125 14.79296875 C-0.67583595 13.19875405 -0.67583595 13.19875405 -0.29296875 9.86328125 C-0.25816406 8.69152344 -0.22335938 7.51976562 -0.1875 6.3125 C-0.13980469 5.13300781 -0.09210938 3.95351563 -0.04296875 2.73828125 C-0.02878906 1.83464844 -0.01460937 0.93101562 0 0 Z " fill="#B49767" transform="translate(134,354)"/>
<path d="M0 0 C0.66 0 1.32 0 2 0 C2 5.94 2 11.88 2 18 C0.35 18 -1.3 18 -3 18 C-3 15.36 -3 12.72 -3 10 C-7.455 10.495 -7.455 10.495 -12 11 C-12 10.34 -12 9.68 -12 9 C-8.3558226 6.5705484 -6.28758728 6.83820425 -2 7 C-1.34 4.69 -0.68 2.38 0 0 Z " fill="#A6874D" transform="translate(116,355)"/>
<path d="M0 0 C0 1.32 0 2.64 0 4 C0.66 4.33 1.32 4.66 2 5 C1.06788763 7.33028092 0.30996602 8.75891532 -1.6875 10.3125 C-4.9760002 11.29016222 -7.67519127 10.63938629 -11 10 C-11.33 8.35 -11.66 6.7 -12 5 C-10.75747321 4.15556432 -9.5056114 3.3248542 -8.25 2.5 C-7.55390625 2.0359375 -6.8578125 1.571875 -6.140625 1.09375 C-4 0 -4 0 0 0 Z " fill="#B3945D" transform="translate(188,144)"/>
<path d="M0 0 C1.32 0.66 2.64 1.32 4 2 C4 7.94 4 13.88 4 20 C2.35 20 0.7 20 -1 20 C-1.02888514 16.85418577 -1.04675923 13.70840531 -1.0625 10.5625 C-1.07087891 9.66466797 -1.07925781 8.76683594 -1.08789062 7.84179688 C-1.09111328 6.98779297 -1.09433594 6.13378906 -1.09765625 5.25390625 C-1.10551147 4.06776733 -1.10551147 4.06776733 -1.11352539 2.85766602 C-1 1 -1 1 0 0 Z " fill="#B6A170" transform="translate(193,353)"/>
<path d="M0 0 C1.65 0 3.3 0 5 0 C5 6.27 5 12.54 5 19 C3.35 19 1.7 19 0 19 C0 12.73 0 6.46 0 0 Z " fill="#BDA478" transform="translate(339,354)"/>
<path d="M0 0 C0.33 0 0.66 0 1 0 C1 6.93 1 13.86 1 21 C4.63 21 8.26 21 12 21 C12 21.33 12 21.66 12 22 C10.9275 22.144375 9.855 22.28875 8.75 22.4375 C6.08337051 22.83749442 3.58600271 23.27591924 1 24 C1.33 24.99 1.66 25.98 2 27 C2.01553817 28.55643549 1.96798687 30.11400687 1.87890625 31.66796875 C1.83056641 32.56064453 1.78222656 33.45332031 1.73242188 34.37304688 C1.64831055 35.76620117 1.64831055 35.76620117 1.5625 37.1875 C1.51029297 38.12787109 1.45808594 39.06824219 1.40429688 40.03710938 C1.27468082 42.35841501 1.13971819 44.67928409 1 47 C-1.3807604 43.4288594 -1.24557691 41.87263241 -1.23046875 37.63671875 C-1.22853516 36.35603516 -1.22660156 35.07535156 -1.22460938 33.75585938 C-1.21840576 33.08578857 -1.21220215 32.41571777 -1.20581055 31.7253418 C-1.18790864 29.73297913 -1.1865347 27.74048972 -1.18554688 25.74804688 C-1.14689212 17.11944579 -0.72631822 8.59629797 0 0 Z " fill="#A78952" transform="translate(105,276)"/>
<path d="M0 0 C0.8971875 0.928125 0.8971875 0.928125 1.8125 1.875 C4.00811144 4.13676954 4.00811144 4.13676954 7 6 C6.01 6.495 6.01 6.495 5 7 C7.31 7.66 9.62 8.32 12 9 C12.33 8.34 12.66 7.68 13 7 C13.66 8.98 14.32 10.96 15 13 C12.625 13.1875 12.625 13.1875 10 13 C9.34 12.01 8.68 11.02 8 10 C4.91634129 9.7497843 4.91634129 9.7497843 2 10 C1.67 10.99 1.34 11.98 1 13 C-0.98 13 -2.96 13 -5 13 C-3.58192622 8.52761347 -1.88695626 4.28853694 0 0 Z " fill="#B49C68" transform="translate(145,360)"/>
<path d="M0 0 C4.23582327 -0.04938628 8.47149465 -0.08571263 12.70751953 -0.10986328 C14.14895547 -0.11992963 15.59037095 -0.1335838 17.03173828 -0.15087891 C19.10193934 -0.17510012 21.17187076 -0.18647641 23.2421875 -0.1953125 C25.11173096 -0.21102295 25.11173096 -0.21102295 27.01904297 -0.22705078 C30 0 30 0 32 2 C32.495 3.485 32.495 3.485 33 5 C22.77 4.67 12.54 4.34 2 4 C2 3.67 2 3.34 2 3 C3.98 2.67 5.96 2.34 8 2 C5.36 2 2.72 2 0 2 C0 1.34 0 0.68 0 0 Z " fill="#A68651" transform="translate(166,297)"/>
<path d="M0 0 C2.15478516 -0.34057617 2.15478516 -0.34057617 4.7890625 -0.29296875 C5.73007813 -0.28330078 6.67109375 -0.27363281 7.640625 -0.26367188 C9.11789063 -0.2259668 9.11789063 -0.2259668 10.625 -0.1875 C12.11386719 -0.16719727 12.11386719 -0.16719727 13.6328125 -0.14648438 C16.08908072 -0.11105743 18.54427285 -0.06166196 21 0 C21 0.33 21 0.66 21 1 C13.08 1.495 13.08 1.495 5 2 C5.33 2.33 5.66 2.66 6 3 C6.09340434 4.62674778 6.11745171 6.25754051 6.11352539 7.88696289 C6.11344986 8.92796646 6.11337433 9.96897003 6.11329651 11.04151917 C6.10813522 12.1737944 6.10297394 13.30606964 6.09765625 14.47265625 C6.0962413 15.62543564 6.09482635 16.77821503 6.09336853 17.96592712 C6.08775005 21.66481064 6.07519442 25.36363464 6.0625 29.0625 C6.05748738 31.56315017 6.05292406 34.06380129 6.04882812 36.56445312 C6.03777462 42.70965588 6.02101852 48.85482369 6 55 C5.67 55 5.34 55 5 55 C4.67 38.83 4.34 22.66 4 6 C2.02 5.01 0.04 4.02 -2 3 C-1.34 2.01 -0.68 1.02 0 0 Z " fill="#FEF6D4" transform="translate(152,270)"/>
<path d="M0 0 C2.64 0 5.28 0 8 0 C8 0.66 8 1.32 8 2 C7.01 2 6.02 2 5 2 C5 4.31 5 6.62 5 9 C5.99 9.33 6.98 9.66 8 10 C7.01 10.33 6.02 10.66 5 11 C4.67 12.98 4.34 14.96 4 17 C2.68 16.67 1.36 16.34 0 16 C0 10.72 0 5.44 0 0 Z " fill="#AC8D52" transform="translate(232,355)"/>
<path d="M0 0 C-0.3125 2.375 -0.3125 2.375 -1 5 C-4.79163027 7.52775351 -7.80874031 7.22443035 -12.1875 7.125 C-12.93708984 7.11597656 -13.68667969 7.10695313 -14.45898438 7.09765625 C-16.30612654 7.07412578 -18.15310412 7.03825561 -20 7 C-19.67 6.01 -19.34 5.02 -19 4 C-17.1796875 3.33984375 -17.1796875 3.33984375 -14.875 2.9375 C-11.89961702 2.37369335 -9.02171482 1.76010731 -6.125 0.875 C-3 0 -3 0 0 0 Z " fill="#B99B68" transform="translate(273,324)"/>
<path d="M0 0 C0.66 0.33 1.32 0.66 2 1 C2.33 1.99 2.66 2.98 3 4 C1.25790351 6.25020797 -0.09317381 7.8047678 -2.94140625 8.41796875 C-4.96063938 8.6150578 -6.98031006 8.80764858 -9 9 C-9.99 9.66 -10.98 10.32 -12 11 C-9.03 11.33 -6.06 11.66 -3 12 C-3 12.33 -3 12.66 -3 13 C-4.45823212 13.0270043 -5.91660675 13.04639787 -7.375 13.0625 C-8.18710938 13.07410156 -8.99921875 13.08570313 -9.8359375 13.09765625 C-12 13 -12 13 -14 12 C-14 10.68 -14 9.36 -14 8 C-11.953125 6.3671875 -11.953125 6.3671875 -9.25 4.875 C-8.36828125 4.37742188 -7.4865625 3.87984375 -6.578125 3.3671875 C-5.72734375 2.91601562 -4.8765625 2.46484375 -4 2 C-3.27296875 1.59007812 -2.5459375 1.18015625 -1.796875 0.7578125 C-0.90742188 0.38269531 -0.90742188 0.38269531 0 0 Z " fill="#B69D70" transform="translate(158,158)"/>
<path d="M0 0 C0.33 0 0.66 0 1 0 C1.33 4.95 1.66 9.9 2 15 C3.98 15.66 5.96 16.32 8 17 C7.67 17.66 7.34 18.32 7 19 C4.38578081 19.34319088 1.87602357 19.56035977 -0.75 19.6875 C-1.46671875 19.73455078 -2.1834375 19.78160156 -2.921875 19.83007812 C-6.78819275 20.04684778 -10.24637283 19.98274097 -14 19 C-14 18.01 -14 17.02 -14 16 C-13.360625 15.87625 -12.72125 15.7525 -12.0625 15.625 C-11.381875 15.41875 -10.70125 15.2125 -10 15 C-9.67 14.34 -9.34 13.68 -9 13 C-8.67 13.99 -8.34 14.98 -8 16 C-8.99 16 -9.98 16 -11 16 C-11 16.66 -11 17.32 -11 18 C-7.37 17.67 -3.74 17.34 0 17 C-0.33 16.34 -0.66 15.68 -1 15 C-0.91089842 12.44192238 -0.76705754 9.9237399 -0.5625 7.375 C-0.51029297 6.66859375 -0.45808594 5.9621875 -0.40429688 5.234375 C-0.27458793 3.48920013 -0.13795046 1.74454275 0 0 Z " fill="#B8A47E" transform="translate(364,312)"/>
<path d="M0 0 C0.33 0 0.66 0 1 0 C1 9.9 1 19.8 1 30 C1.66 30 2.32 30 3 30 C3.12375 30.639375 3.2475 31.27875 3.375 31.9375 C3.58125 32.618125 3.7875 33.29875 4 34 C4.66 34.33 5.32 34.66 6 35 C2.04 34.67 -1.92 34.34 -6 34 C-5.01 33.505 -5.01 33.505 -4 33 C-3.35173919 31.14465837 -3.35173919 31.14465837 -2.9375 29 C-2.09339408 25.09339408 -2.09339408 25.09339408 -1 24 C-0.84235595 22.22130274 -0.74899323 20.43681524 -0.68359375 18.65234375 C-0.64169922 17.57275391 -0.59980469 16.49316406 -0.55664062 15.38085938 C-0.51732422 14.24455078 -0.47800781 13.10824219 -0.4375 11.9375 C-0.37272461 10.22723633 -0.37272461 10.22723633 -0.30664062 8.48242188 C-0.20017161 5.65507805 -0.09815793 2.82764262 0 0 Z " fill="#B1915C" transform="translate(206,295)"/>
<path d="M0 0 C0.99 0.33 1.98 0.66 3 1 C2.67 2.32 2.34 3.64 2 5 C4.64 5.66 7.28 6.32 10 7 C9.34 8.32 8.68 9.64 8 11 C3.25 9.125 3.25 9.125 1 8 C-1.0374763 7.77141886 -3.08040303 7.58975722 -5.125 7.4375 C-6.76855469 7.31181641 -6.76855469 7.31181641 -8.4453125 7.18359375 C-9.28835937 7.12300781 -10.13140625 7.06242187 -11 7 C-11 5 -11 5 -9 3 C-5.5 2.5 -5.5 2.5 -2 2 C-1.34 1.34 -0.68 0.68 0 0 Z " fill="#BA9969" transform="translate(117,295)"/>
<path d="M0 0 C2 3 2 3 2 5 C3.32 5 4.64 5 6 5 C5.8453125 6.10859375 5.690625 7.2171875 5.53125 8.359375 C4.80077094 14.19806325 4.62578009 20.0542541 4.39453125 25.9296875 C4.35714844 26.78304687 4.31976563 27.63640625 4.28125 28.515625 C4.25095703 29.28165039 4.22066406 30.04767578 4.18945312 30.83691406 C4.00140111 32.98400282 3.58126809 34.9279087 3 37 C2.34 36.67 1.68 36.34 1 36 C1.14070156 32.83308393 1.28851269 29.66653622 1.4375 26.5 C1.47681641 25.613125 1.51613281 24.72625 1.55664062 23.8125 C1.81084087 18.49384873 2.26676337 13.2743744 3 8 C2.01 8 1.02 8 0 8 C-1.09658936 4.71023192 -0.79953138 3.28696233 0 0 Z " fill="#C2AF89" transform="translate(356,189)"/>
<path d="M0 0 C1.84520123 2.76780185 3.22777932 5.4265303 4.625 8.4375 C5.07101562 9.38496094 5.51703125 10.33242188 5.9765625 11.30859375 C7 14 7 14 7 18 C5.35 18 3.7 18 2 18 C1.67 17.01 1.34 16.02 1 15 C-1.91652174 14.83318891 -1.91652174 14.83318891 -5 15 C-5.66 15.66 -6.32 16.32 -7 17 C-7 15.35 -7 13.7 -7 12 C-0.25 11.875 -0.25 11.875 2 13 C1.67 12.34 1.34 11.68 1 11 C-0.28687011 7.13938967 -0.13757618 4.05849717 0 0 Z " fill="#BEA07B" transform="translate(393,355)"/>
<path d="M0 0 C0.66 0 1.32 0 2 0 C2.12375 0.639375 2.2475 1.27875 2.375 1.9375 C2.58125 2.618125 2.7875 3.29875 3 4 C3.66 4.33 4.32 4.66 5 5 C4.34 5.4125 3.68 5.825 3 6.25 C2.01 7.11625 2.01 7.11625 1 8 C1 9.32 1 10.64 1 12 C-0.98 12.66 -2.96 13.32 -5 14 C-5 13.01 -5 12.02 -5 11 C-6.98 11 -8.96 11 -11 11 C-9.03617993 9.49440461 -7.21736634 8.10868317 -5 7 C-4.67 6.01 -4.34 5.02 -4 4 C-2.35 4 -0.7 4 1 4 C0.67 2.68 0.34 1.36 0 0 Z " fill="#AE8E54" transform="translate(354,171)"/>
<path d="M0 0 C0.99 0.33 1.98 0.66 3 1 C2.34 1.391875 1.68 1.78375 1 2.1875 C-1.22636397 3.83438935 -1.22636397 3.83438935 -1.4375 6.4375 C-0.92818644 9.42062226 -0.04448582 10.79824604 2 13 C2.66 13.33 3.32 13.66 4 14 C2.35 14.66 0.7 15.32 -1 16 C-3.5 14.625 -3.5 14.625 -6 12 C-6.44908891 8.62919149 -6.29036649 5.38115651 -6 2 C-5.38125 1.855625 -4.7625 1.71125 -4.125 1.5625 C-1.96741678 1.06847775 -1.96741678 1.06847775 0 0 Z " fill="#AA905C" transform="translate(256,357)"/>
<path d="M0 0 C6.50760989 1.71252892 13.21690682 5.21690682 18 10 C18 11.32 18 12.64 18 14 C14.37 14 10.74 14 7 14 C7 13.67 7 13.34 7 13 C10.465 12.505 10.465 12.505 14 12 C14 11.34 14 10.68 14 10 C12.39125 9.938125 12.39125 9.938125 10.75 9.875 C7 9 7 9 4.75 6 C3.88375 4.515 3.88375 4.515 3 3 C2.01 2.67 1.02 2.34 0 2 C0 1.34 0 0.68 0 0 Z " fill="#B8A078" transform="translate(309,157)"/>
<path d="M0 0 C6.6 0 13.2 0 20 0 C20.33 0.99 20.66 1.98 21 3 C15.72 2.67 10.44 2.34 5 2 C5.33 2.66 5.66 3.32 6 4 C6.13415472 6.6723621 6.04318541 9.32250488 6 12 C5.67 12 5.34 12 5 12 C4.34 9.69 3.68 7.38 3 5 C1.68 4.67 0.36 4.34 -1 4 C-0.67 2.68 -0.34 1.36 0 0 Z " fill="#BFAF8E" transform="translate(385,270)"/>
<path d="M0 0 C0.99 0 1.98 0 3 0 C3.66 0.66 4.32 1.32 5 2 C5.99 2.66 6.98 3.32 8 4 C9.1875 6.625 9.1875 6.625 10 9 C11.11375 8.938125 12.2275 8.87625 13.375 8.8125 C15.169375 8.9053125 15.169375 8.9053125 17 9 C17.99 10.485 17.99 10.485 19 12 C15.74696956 13.62651522 12.60774398 13.11453156 9 13 C8 12 8 12 7.9375 9.4375 C7.958125 8.633125 7.97875 7.82875 8 7 C7.4225 6.938125 6.845 6.87625 6.25 6.8125 C3.09559388 5.6734089 1.88882399 3.69831998 0 1 C0 0.67 0 0.34 0 0 Z " fill="#B39357" transform="translate(306,157)"/>
<path d="M0 0 C1.32 0 2.64 0 4 0 C3.39124245 4.60416626 2.15277044 8.56483324 0.4375 12.875 C-0.01753906 14.02742188 -0.47257812 15.17984375 -0.94140625 16.3671875 C-1.29074219 17.23601562 -1.64007813 18.10484375 -2 19 C-3.65 19 -5.3 19 -7 19 C-7.33 18.34 -7.66 17.68 -8 17 C-6.35 17.33 -4.7 17.66 -3 18 C-2.67 15.36 -2.34 12.72 -2 10 C-1.34 10 -0.68 10 0 10 C0 8.68 0 7.36 0 6 C-0.66 6 -1.32 6 -2 6 C-2.33 7.65 -2.66 9.3 -3 11 C-4.3968009 6.80959731 -2.86445675 4.87233324 -1 1 C-0.67 0.67 -0.34 0.34 0 0 Z " fill="#B49F77" transform="translate(332,354)"/>
<path d="M0 0 C5.23175837 -0.38281159 8.37802694 0.78145293 13 3 C11.02 3.99 11.02 3.99 9 5 C9.144375 5.5775 9.28875 6.155 9.4375 6.75 C9.95833333 8.83333333 10.47916667 10.91666667 11 13 C10.34 12.67 9.68 12.34 9 12 C9 11.34 9 10.68 9 10 C8.34 10 7.68 10 7 10 C7 9.34 7 8.68 7 8 C6.01 7.67 5.02 7.34 4 7 C4 6.34 4 5.68 4 5 C3.34 5 2.68 5 2 5 C2 4.34 2 3.68 2 3 C1.34 3 0.68 3 0 3 C0 2.01 0 1.02 0 0 Z " fill="#BCA57C" transform="translate(343,160)"/>
<path d="M0 0 C-2.94743014 4.01922292 -5.09022474 6.56299261 -10 8 C-10.99 7.34 -11.98 6.68 -13 6 C-12.34 5.67 -11.68 5.34 -11 5 C-11.66 4.34 -12.32 3.68 -13 3 C-12.67 2.67 -12.34 2.34 -12 2 C-12.99 1.34 -13.98 0.68 -15 0 C-9.62374766 -0.84888195 -5.34629602 -1.0024305 0 0 Z " fill="#56A2B6" transform="translate(344,238)"/>
<path d="M0 0 C0.33 0 0.66 0 1 0 C1.05390357 2.93774463 1.0936255 5.87450232 1.125 8.8125 C1.14175781 9.64587891 1.15851563 10.47925781 1.17578125 11.33789062 C1.18222656 12.14033203 1.18867188 12.94277344 1.1953125 13.76953125 C1.20578613 14.50792236 1.21625977 15.24631348 1.22705078 16.00708008 C1 18 1 18 -1 21 C-1.99 20.67 -2.98 20.34 -4 20 C-5.15019009 16.54942972 -4.80497206 15.69840756 -3.625 12.375 C-3.34914063 11.57835937 -3.07328125 10.78171875 -2.7890625 9.9609375 C-2 8 -2 8 -1 7 C-0.63239269 4.67182036 -0.29758419 2.3381615 0 0 Z " fill="#B69256" transform="translate(357,207)"/>
<path d="M0 0 C0.66 0 1.32 0 2 0 C2.33 3.63 2.66 7.26 3 11 C3.33 10.67 3.66 10.34 4 10 C6.67058851 9.85884839 9.32432238 9.95752893 12 10 C12 10.33 12 10.66 12 11 C9.69 11 7.38 11 5 11 C5 13.31 5 15.62 5 18 C3.35 18 1.7 18 0 18 C0 12.06 0 6.12 0 0 Z " fill="#C4AF82" transform="translate(101,355)"/>
<path d="M0 0 C5.28 0 10.56 0 16 0 C11 4 11 4 9 4 C8.67 5.65 8.34 7.3 8 9 C7.34 9 6.68 9 6 9 C5.7525 8.21625 5.505 7.4325 5.25 6.625 C3.84610901 3.67682892 2.99324263 3.0975223 0 2 C0 1.34 0 0.68 0 0 Z " fill="#B09664" transform="translate(269,271)"/>
<path d="M0 0 C0.66 0.33 1.32 0.66 2 1 C0.53033642 4.39859703 -1.38037514 6.64963709 -4 9.25 C-4.70125 9.95640625 -5.4025 10.6628125 -6.125 11.390625 C-8 13 -8 13 -10 13 C-10.625 9.875 -10.625 9.875 -10 6 C-6.96422598 3.41519241 -3.69272123 1.50130306 0 0 Z " fill="#6A9DAA" transform="translate(372,223)"/>
<path d="M0 0 C2.39110277 1.25847514 4.68536015 2.60157176 7 4 C7 4.33 7 4.66 7 5 C4.69 5 2.38 5 0 5 C-0.33 3.68 -0.66 2.36 -1 1 C-1.54140625 1.16371094 -2.0828125 1.32742187 -2.640625 1.49609375 C-5.40222593 2.08590587 -7.92818139 2.09609308 -10.75 2.0625 C-11.73484375 2.05347656 -12.7196875 2.04445313 -13.734375 2.03515625 C-14.48203125 2.02355469 -15.2296875 2.01195313 -16 2 C-9.89916343 -3.11151172 -7.15752664 -3.23917264 0 0 Z " fill="#B39A6D" transform="translate(243,119)"/>
<path d="M0 0 C0 0.66 0 1.32 0 2 C1.7699868 2.19532961 3.54104279 2.38098882 5.3125 2.5625 C6.29863281 2.66691406 7.28476563 2.77132813 8.30078125 2.87890625 C11.09930347 3.16602527 11.09930347 3.16602527 14 2 C14 2.99 14 3.98 14 5 C6.74 5 -0.52 5 -8 5 C-8 4.01 -8 3.02 -8 2 C-5.09399739 0.74335022 -3.20395416 0 0 0 Z " fill="#B49C76" transform="translate(199,326)"/>
<path d="M0 0 C0.33 0 0.66 0 1 0 C1.01981934 0.65073486 1.03963867 1.30146973 1.06005859 1.97192383 C1.15529299 4.91919151 1.26497818 7.86574885 1.375 10.8125 C1.4059375 11.83666016 1.436875 12.86082031 1.46875 13.91601562 C1.50742188 14.89892578 1.54609375 15.88183594 1.5859375 16.89453125 C1.6173584 17.80050049 1.6487793 18.70646973 1.68115234 19.63989258 C1.86027919 22.26525392 1.86027919 22.26525392 4 25 C6.05925139 25.72382467 6.05925139 25.72382467 8 26 C8 26.99 8 27.98 8 29 C6.35 29 4.7 29 3 29 C3 28.34 3 27.68 3 27 C1.02 27 -0.96 27 -3 27 C-2.01 25.515 -2.01 25.515 -1 24 C-0.63250611 21.38710506 -0.63250611 21.38710506 -0.5859375 18.45703125 C-0.54726562 17.38388672 -0.50859375 16.31074219 -0.46875 15.20507812 C-0.4378125 14.08552734 -0.406875 12.96597656 -0.375 11.8125 C-0.33632812 10.68134766 -0.29765625 9.55019531 -0.2578125 8.38476562 C-0.16347467 5.5900075 -0.07788348 2.79525722 0 0 Z " fill="#AF9668" transform="translate(166,302)"/>
<path d="M0 0 C0.33 0 0.66 0 1 0 C1.32405231 4.64474974 0.88473323 7.29105728 -2 11 C-5.22158636 13.33287288 -8.10957355 13.17683757 -12 13 C-12 11 -12 11 -11 10 C-11 9.01 -11 8.02 -11 7 C-9.02 6.67 -7.04 6.34 -5 6 C-5 6.66 -5 7.32 -5 8 C-4.01 8 -3.02 8 -2 8 C-2 7.01 -2 6.02 -2 5 C-1.34 5 -0.68 5 0 5 C0 3.35 0 1.7 0 0 Z " fill="#C4B187" transform="translate(268,361)"/>
<path d="M0 0 C2.02045442 0.60183749 4.02111039 1.27306096 6 2 C6.33 2.66 6.66 3.32 7 4 C5.68 4 4.36 4 3 4 C3.57452746 7.93075644 3.57452746 7.93075644 6 11 C3 12 3 12 0.3125 10.9375 C-2 9 -2 9 -2.4375 6 C-2 3 -2 3 0 0 Z " fill="#BBA073" transform="translate(264,132)"/>
<path d="M0 0 C6.6 0 13.2 0 20 0 C20 0.33 20 0.66 20 1 C15.38 1.33 10.76 1.66 6 2 C6 4.97 6 7.94 6 11 C5.67 11 5.34 11 5 11 C5 9.02 5 7.04 5 5 C3.02 4.34 1.04 3.68 -1 3 C-0.67 2.01 -0.34 1.02 0 0 Z " fill="#D0C4AB" transform="translate(192,270)"/>
<path d="M0 0 C0.66 0.33 1.32 0.66 2 1 C2.268125 1.969375 2.53625 2.93875 2.8125 3.9375 C3.69360946 7.20646204 3.69360946 7.20646204 6.625 8.375 C7.40875 8.58125 8.1925 8.7875 9 9 C9 9.99 9 10.98 9 12 C6.69 12.33 4.38 12.66 2 13 C-1.62870159 4.738041 -1.62870159 4.738041 0 0 Z " fill="#B29563" transform="translate(274,360)"/>
<path d="M0 0 C4.29 0.99 8.58 1.98 13 3 C13 3.33 13 3.66 13 4 C11.865625 4.12375 10.73125 4.2475 9.5625 4.375 C7.7990625 4.684375 7.7990625 4.684375 6 5 C5.67 5.66 5.34 6.32 5 7 C8.3 7 11.6 7 15 7 C15 7.33 15 7.66 15 8 C12.72923158 8.02699725 10.45837179 8.04639453 8.1875 8.0625 C6.29064453 8.07990234 6.29064453 8.07990234 4.35546875 8.09765625 C1 8 1 8 -2 7 C-2.33 6.01 -2.66 5.02 -3 4 C-0.03 4.495 -0.03 4.495 3 5 C3 4.34 3 3.68 3 3 C2.01 2.67 1.02 2.34 0 2 C0 1.34 0 0.68 0 0 Z " fill="#BB9F79" transform="translate(248,324)"/>
<path d="M0 0 C2.875 -0.1875 2.875 -0.1875 6 0 C8 3 8 3 8 6 C7.34 6.66 6.68 7.32 6 8 C3.54150788 7.76208141 2.18797385 7.136119 0.1875 5.6875 C-1 4 -1 4 -0.6875 1.8125 C-0.460625 1.214375 -0.23375 0.61625 0 0 Z " fill="#B3945A" transform="translate(267,136)"/>
<path d="M0 0 C0.33 0 0.66 0 1 0 C1 6.6 1 13.2 1 20 C1.66 20.33 2.32 20.66 3 21 C3 22.32 3 23.64 3 25 C2.34 25.33 1.68 25.66 1 26 C0.34 26.99 -0.32 27.98 -1 29 C-1.02948491 25.85418698 -1.04695916 22.70841037 -1.0625 19.5625 C-1.07506836 18.24475586 -1.07506836 18.24475586 -1.08789062 16.90039062 C-1.10899107 11.18216923 -0.73280057 5.67199185 0 0 Z " fill="#A38956" transform="translate(304,297)"/>
<path d="M0 0 C5.94 0 11.88 0 18 0 C18 0.99 18 1.98 18 3 C12.06 3 6.12 3 0 3 C0 2.01 0 1.02 0 0 Z " fill="#B19A6C" transform="translate(296,328)"/>
<path d="M0 0 C1.95825873 -0.02694851 3.91662226 -0.04637218 5.875 -0.0625 C6.96554687 -0.07410156 8.05609375 -0.08570313 9.1796875 -0.09765625 C12 0 12 0 14 1 C13.67 1.99 13.34 2.98 13 4 C8.19407629 4 3.74540667 3.84362785 -1 3 C-0.67 2.01 -0.34 1.02 0 0 Z " fill="#C1AE86" transform="translate(355,270)"/>
<path d="M0 0 C-0.185625 0.61875 -0.37125 1.2375 -0.5625 1.875 C-1.23686176 4.04160178 -1.23686176 4.04160178 0 6 C-1.43429001 6.67354499 -2.87257057 7.33859701 -4.3125 8 C-5.51326172 8.556875 -5.51326172 8.556875 -6.73828125 9.125 C-9 10 -9 10 -12 10 C-11.34 8.68 -10.68 7.36 -10 6 C-9.34 6 -8.68 6 -8 6 C-8 5.34 -8 4.68 -8 4 C-2.58823529 0 -2.58823529 0 0 0 Z " fill="#78A0A8" transform="translate(148,224)"/>
<path d="M0 0 C1.65 0 3.3 0 5 0 C4.67 0.66 4.34 1.32 4 2 C3.01 1.67 2.02 1.34 1 1 C1 4.63 1 8.26 1 12 C2.32 12 3.64 12 5 12 C5 14.31 5 16.62 5 19 C3.35 19 1.7 19 0 19 C0 12.73 0 6.46 0 0 Z " fill="#CDBD9F" transform="translate(171,354)"/>
<path d="M0 0 C0.433125 0.9590625 0.433125 0.9590625 0.875 1.9375 C1.82823451 4.15206079 1.82823451 4.15206079 4 5 C3.21681311 8.91593446 1.60820142 12.36406635 0 16 C-0.33 16 -0.66 16 -1 16 C-3.43326039 7.14223195 -3.43326039 7.14223195 -1.625 2.375 C-1.08875 1.59125 -0.5525 0.8075 0 0 Z " fill="#BCA37A" transform="translate(348,285)"/>
<path d="M0 0 C0.66 0.66 1.32 1.32 2 2 C1.67 2.66 1.34 3.32 1 4 C0.84655791 5.88472859 0.75040429 7.77427874 0.68359375 9.6640625 C0.64169922 10.78554688 0.59980469 11.90703125 0.55664062 13.0625 C0.51732422 14.238125 0.47800781 15.41375 0.4375 16.625 C0.39431641 17.80835938 0.35113281 18.99171875 0.30664062 20.2109375 C0.20032574 23.14050328 0.09829358 26.07015588 0 29 C-0.33 29 -0.66 29 -1 29 C-1.4228355 24.91899004 -1.80856698 20.8353016 -2.1875 16.75 C-2.30802734 15.59113281 -2.42855469 14.43226563 -2.55273438 13.23828125 C-2.65263672 12.12324219 -2.75253906 11.00820313 -2.85546875 9.859375 C-3.00471802 8.31975098 -3.00471802 8.31975098 -3.15698242 6.74902344 C-2.97392536 3.54338961 -2.14658174 2.32404546 0 0 Z " fill="#AA8E58" transform="translate(363,273)"/>
<path d="M0 0 C0.66 0 1.32 0 2 0 C2 1.32 2 2.64 2 4 C1.34 4 0.68 4 0 4 C-0.33 6.64 -0.66 9.28 -1 12 C-2.65 11.67 -4.3 11.34 -6 11 C-6.625 9.125 -6.625 9.125 -7 7 C-6.34 6.34 -5.68 5.68 -5 5 C-4.01 5 -3.02 5 -2 5 C-1.34 3.35 -0.68 1.7 0 0 Z " fill="#AA8C4F" transform="translate(330,360)"/>
<path d="M0 0 C2.15478516 -0.34057617 2.15478516 -0.34057617 4.7890625 -0.29296875 C5.73007813 -0.28330078 6.67109375 -0.27363281 7.640625 -0.26367188 C9.11789063 -0.2259668 9.11789063 -0.2259668 10.625 -0.1875 C12.11386719 -0.16719727 12.11386719 -0.16719727 13.6328125 -0.14648438 C16.08908072 -0.11105743 18.54427285 -0.06166196 21 0 C21 0.33 21 0.66 21 1 C13.08 1.495 13.08 1.495 5 2 C5.33 2.33 5.66 2.66 6 3 C6.04080783 4.99958364 6.04254356 7.00045254 6 9 C5.13375 8.071875 5.13375 8.071875 4.25 7.125 C2.19750179 5.18652947 0.56633418 4.09985751 -2 3 C-1.34 2.01 -0.68 1.02 0 0 Z " fill="#DACDB3" transform="translate(152,270)"/>
<path d="M0 0 C6.6 0 13.2 0 20 0 C20 0.33 20 0.66 20 1 C15.05 1.33 10.1 1.66 5 2 C5 3.98 5 5.96 5 8 C4.67 7.01 4.34 6.02 4 5 C2.35 4.67 0.7 4.34 -1 4 C-0.67 2.68 -0.34 1.36 0 0 Z " fill="#D4CAB1" transform="translate(227,270)"/>
<path d="M0 0 C1.98 0.66 3.96 1.32 6 2 C6.33 1.34 6.66 0.68 7 0 C7.33 0.99 7.66 1.98 8 3 C7.01 3.33 6.02 3.66 5 4 C5 5.98 5 7.96 5 10 C3.68 10 2.36 10 1 10 C0.814375 8.576875 0.814375 8.576875 0.625 7.125 C0.28312823 3.91332809 0.28312823 3.91332809 -2 2 C-1.34 1.34 -0.68 0.68 0 0 Z " fill="#AF8D55" transform="translate(357,184)"/>
<path d="M0 0 C1.875 0.3125 1.875 0.3125 4 1 C6.1519437 4.22791555 6.20086443 5.28400809 6 9 C1.545 8.01 1.545 8.01 -3 7 C-1.68 6.67 -0.36 6.34 1 6 C0.67 4.02 0.34 2.04 0 0 Z " fill="#B08F59" transform="translate(151,360)"/>
<path d="M0 0 C0.66 0 1.32 0 2 0 C3.85412674 3.70825347 3.45790469 7.95311265 3 12 C1.96349982 14.6169064 0.95171866 15.88099117 -1 18 C-1.99 18 -2.98 18 -4 18 C-3.34 16.88625 -2.68 15.7725 -2 14.625 C0.48147344 9.74942895 0.39556963 5.36216614 0 0 Z " fill="#AE9C71" transform="translate(134,307)"/>
<path d="M0 0 C0.66 0 1.32 0 2 0 C1.67 2.31 1.34 4.62 1 7 C0.01 7.33 -0.98 7.66 -2 8 C-5.1875 6.0625 -5.1875 6.0625 -8 4 C-7.34 3.01 -6.68 2.02 -6 1 C-3.4375 0.875 -3.4375 0.875 -1 1 C-0.67 0.67 -0.34 0.34 0 0 Z " fill="#B49562" transform="translate(262,132)"/>
<path d="M0 0 C3.465 1.485 3.465 1.485 7 3 C6.525625 3.763125 6.05125 4.52625 5.5625 5.3125 C3.89893903 7.96410548 3.89893903 7.96410548 3 11 C0.08482708 9.92598892 -1.77810176 9.22189824 -4 7 C-2.35 6.34 -0.7 5.68 1 5 C1.10540926 2.78918149 1.10540926 2.78918149 0 0 Z " fill="#BAA172" transform="translate(273,137)"/>
<path d="M0 0 C1.50156874 3.00313748 1.09281204 5.79067522 1.0625 9.125 C1.05347656 10.40632813 1.04445313 11.68765625 1.03515625 13.0078125 C1.02355469 13.99523437 1.01195312 14.98265625 1 16 C4.3 15.67 7.6 15.34 11 15 C11 15.99 11 16.98 11 18 C7.04 18 3.08 18 -1 18 C-1.02684312 15.18743719 -1.04676188 12.37512759 -1.0625 9.5625 C-1.07087891 8.76005859 -1.07925781 7.95761719 -1.08789062 7.13085938 C-1.0965143 5.08704779 -1.0522815 3.04316098 -1 1 C-0.67 0.67 -0.34 0.34 0 0 Z " fill="#9F8254" transform="translate(350,355)"/>
<path d="M0 0 C1.32 0 2.64 0 4 0 C4.33 2.97 4.66 5.94 5 9 C3.35 9.33 1.7 9.66 0 10 C0 6.7 0 3.4 0 0 Z " fill="#B29A6B" transform="translate(202,363)"/>
<path d="M0 0 C2.475 0.495 2.475 0.495 5 1 C5 5.62 5 10.24 5 15 C4.67 15 4.34 15 4 15 C4 10.71 4 6.42 4 2 C3.01 2.495 3.01 2.495 2 3 C1.68758545 5.71446979 1.48663408 8.33909361 1.375 11.0625 C1.33632813 11.82111328 1.29765625 12.57972656 1.2578125 13.36132812 C1.16326438 15.24047195 1.08053244 17.12020336 1 19 C0.67 19 0.34 19 0 19 C0 12.73 0 6.46 0 0 Z " fill="#CCBD96" transform="translate(295,354)"/>
<path d="M0 0 C4 1 4 1 7 3 C6.01 3.33 5.02 3.66 4 4 C3.67 5.98 3.34 7.96 3 10 C1.68 9.67 0.36 9.34 -1 9 C-0.67 6.03 -0.34 3.06 0 0 Z " fill="#AE8B4C" transform="translate(233,362)"/>
<path d="M0 0 C0.103125 0.639375 0.20625 1.27875 0.3125 1.9375 C0.539375 2.618125 0.76625 3.29875 1 4 C1.99 4.33 2.98 4.66 4 5 C2.75023244 8.65316671 2.32901247 9.78065836 -1 12 C-1 10.68 -1 9.36 -1 8 C-2.65 8.33 -4.3 8.66 -6 9 C-4.73046875 7.53515625 -3.4609375 6.0703125 -2.19140625 4.60546875 C-0.79128769 2.89287029 -0.79128769 2.89287029 0 0 Z " fill="#BEA67C" transform="translate(274,316)"/>
<path d="M0 0 C0.33 0 0.66 0 1 0 C1 5.94 1 11.88 1 18 C-0.65 18 -2.3 18 -4 18 C-4 15.69 -4 13.38 -4 11 C-3.67 11 -3.34 11 -3 11 C-3 12.65 -3 14.3 -3 16 C-2.34 16 -1.68 16 -1 16 C-0.67 10.72 -0.34 5.44 0 0 Z " fill="#D0C399" transform="translate(117,355)"/>
<path d="M0 0 C0.66 0 1.32 0 2 0 C2.04898437 1.13179688 2.09796875 2.26359375 2.1484375 3.4296875 C2.22346514 4.91148339 2.29901297 6.393253 2.375 7.875 C2.4059375 8.62136719 2.436875 9.36773437 2.46875 10.13671875 C2.55643831 14.53473188 2.55643831 14.53473188 5 18 C3.35 18 1.7 18 0 18 C0 12.06 0 6.12 0 0 Z " fill="#CBBB9C" transform="translate(365,355)"/>
<path d="M0 0 C0.33 0.99 0.66 1.98 1 3 C2.32 2.67 3.64 2.34 5 2 C5 2.66 5 3.32 5 4 C4.01 4.66 3.02 5.32 2 6 C0.80767387 8.05003955 0.80767387 8.05003955 0 10 C0 9.34 0 8.68 0 8 C-1.32 7.67 -2.64 7.34 -4 7 C-3.6875 4.625 -3.6875 4.625 -3 2 C-2.01 1.34 -1.02 0.68 0 0 Z " fill="#AD8B4F" transform="translate(122,293)"/>
<path d="M0 0 C5.28 0 10.56 0 16 0 C16.33 1.32 16.66 2.64 17 4 C16.38125 4.268125 15.7625 4.53625 15.125 4.8125 C12.7004767 5.95556848 12.7004767 5.95556848 11 9 C10.67 7.35 10.34 5.7 10 4 C10.99 3.34 11.98 2.68 13 2 C8.71 1.67 4.42 1.34 0 1 C0 0.67 0 0.34 0 0 Z " fill="#DACEB0" transform="translate(270,270)"/>
<path d="M0 0 C1.32 0 2.64 0 4 0 C3.67 2.97 3.34 5.94 3 9 C2.34 9 1.68 9 1 9 C1 9.66 1 10.32 1 11 C0.34 11 -0.32 11 -1 11 C-0.979375 10.21625 -0.95875 9.4325 -0.9375 8.625 C-0.81315937 6.01885039 -0.81315937 6.01885039 -2 4 C-1.0625 1.875 -1.0625 1.875 0 0 Z " fill="#B7975F" transform="translate(389,354)"/>
<path d="M0 0 C6.31121503 1.0992895 12.06338584 2.58137942 18 5 C18 5.33 18 5.66 18 6 C11.56318772 5.48914188 6.04057576 4.27057103 0 2 C0 1.34 0 0.68 0 0 Z " fill="#72A5AE" transform="translate(247,223)"/>
<path d="M0 0 C0.33 0 0.66 0 1 0 C1 4.29 1 8.58 1 13 C3.64 13.66 6.28 14.32 9 15 C9 15.99 9 16.98 9 18 C6.03 17.01 3.06 16.02 0 15 C0 10.05 0 5.1 0 0 Z " fill="#AE946D" transform="translate(266,211)"/>
<path d="M0 0 C0.99 0.33 1.98 0.66 3 1 C4.1875 4.5625 4.1875 4.5625 5 8 C1 8 1 8 -0.75 6.5 C-1.1625 6.005 -1.575 5.51 -2 5 C-1.34 3.35 -0.68 1.7 0 0 Z " fill="#B1976E" transform="translate(384,182)"/>
<path d="M0 0 C3.63 0 7.26 0 11 0 C11 0.66 11 1.32 11 2 C10.360625 2.268125 9.72125 2.53625 9.0625 2.8125 C6.66868314 3.88667752 6.66868314 3.88667752 6 7 C4.0625 6.6875 4.0625 6.6875 2 6 C1.67 5.01 1.34 4.02 1 3 C1.66 2.67 2.32 2.34 3 2 C2.01 1.34 1.02 0.68 0 0 Z " fill="#C6AA7B" transform="translate(344,173)"/>
<path d="M0 0 C0.433125 0.9590625 0.433125 0.9590625 0.875 1.9375 C1.82823451 4.15206079 1.82823451 4.15206079 4 5 C3.67 6.65 3.34 8.3 3 10 C2.67 10 2.34 10 2 10 C1.67 8.35 1.34 6.7 1 5 C-0.2380014 8.57644848 0.25073929 11.33694766 1 15 C-1.02185443 13.33557103 -1.92078843 12.47015897 -2.36328125 9.84375 C-2.34652344 9.0703125 -2.32976562 8.296875 -2.3125 7.5 C-2.30863281 6.7265625 -2.30476563 5.953125 -2.30078125 5.15625 C-2 3 -2 3 0 0 Z " fill="#BFA47F" transform="translate(274,356)"/>
<path d="M0 0 C0.99 0.495 0.99 0.495 2 1 C2.99 0.67 3.98 0.34 5 0 C5.99 0.66 6.98 1.32 8 2 C7.01 2 6.02 2 5 2 C5 2.66 5 3.32 5 4 C6.98 4 8.96 4 11 4 C11 4.66 11 5.32 11 6 C4.67741935 6.36476427 4.67741935 6.36476427 1.5625 4.6875 C0 3 0 3 0 0 Z " fill="#BBA677" transform="translate(123,368)"/>
<path d="M0 0 C6.75 -0.125 6.75 -0.125 9 1 C10.53668865 1.22467831 12.07968054 1.40796805 13.625 1.5625 C14.44226563 1.64628906 15.25953125 1.73007812 16.1015625 1.81640625 C16.72804687 1.87699219 17.35453125 1.93757813 18 2 C18 2.33 18 2.66 18 3 C12.06 3 6.12 3 0 3 C0 2.01 0 1.02 0 0 Z " fill="#B9A27C" transform="translate(151,328)"/>
<path d="M0 0 C0.33 0.99 0.66 1.98 1 3 C-1.31 3.66 -3.62 4.32 -6 5 C-6.33 3.35 -6.66 1.7 -7 0 C-4.3333581 -1.33332095 -2.83319697 -0.67102033 0 0 Z " fill="#AD8E59" transform="translate(282,355)"/>
<path d="M0 0 C0.99 0.66 1.98 1.32 3 2 C3.40843923 4.71203652 3.13336867 7.2437142 3 10 C1.35 9.67 -0.3 9.34 -2 9 C-1.42415568 6.61435923 -0.77772405 4.33317216 0 2 C0 1.34 0 0.68 0 0 Z M-5 8 C-4.01 8.33 -3.02 8.66 -2 9 C-3.32 9.33 -4.64 9.66 -6 10 C-5.67 9.34 -5.34 8.68 -5 8 Z " fill="#AD8F5C" transform="translate(317,283)"/>
<path d="M0 0 C0 0.33 0 0.66 0 1 C-1.24716797 1.19916016 -1.24716797 1.19916016 -2.51953125 1.40234375 C-3.60621094 1.57894531 -4.69289062 1.75554687 -5.8125 1.9375 C-6.89144531 2.11152344 -7.97039062 2.28554687 -9.08203125 2.46484375 C-12.04933356 2.93871921 -12.04933356 2.93871921 -15 4 C-17.1875 3.0625 -17.1875 3.0625 -19 2 C-12.65176798 -0.30844801 -6.70518586 -0.19818283 0 0 Z " fill="#5D91A2" transform="translate(184,215)"/>
<path d="M0 0 C0.66 0 1.32 0 2 0 C2 0.66 2 1.32 2 2 C4.31 2 6.62 2 9 2 C9.33 3.98 9.66 5.96 10 8 C6.2089881 6.55049545 2.6125362 4.84827434 -1 3 C-0.67 2.01 -0.34 1.02 0 0 Z " fill="#BDA279" transform="translate(305,162)"/>
<path d="M0 0 C1.32 0 2.64 0 4 0 C4 1.32 4 2.64 4 4 C2.824375 4.3403125 2.824375 4.3403125 1.625 4.6875 C-1.21875 5.78125 -1.21875 5.78125 -2.3125 8.625 C-2.539375 9.40875 -2.76625 10.1925 -3 11 C-4.3968009 6.80959731 -2.86445675 4.87233324 -1 1 C-0.67 0.67 -0.34 0.34 0 0 Z " fill="#B29671" transform="translate(332,354)"/>
<path d="M0 0 C1.32 0.33 2.64 0.66 4 1 C3.01 3.31 2.02 5.62 1 8 C-1.97 8 -4.94 8 -8 8 C-8 5.69 -8 3.38 -8 1 C-7.67 1 -7.34 1 -7 1 C-7 2.98 -7 4.96 -7 7 C-4.69 7 -2.38 7 0 7 C0 4.69 0 2.38 0 0 Z " fill="#D1C491" transform="translate(113,354)"/>
<path d="M0 0 C0.66 0.66 1.32 1.32 2 2 C-3.00932754 5.00559652 -6.32723489 5.29341888 -12 5 C-11.67 4.34 -11.34 3.68 -11 3 C-8.75 2.40234375 -8.75 2.40234375 -6 1.9375 C-2.69940294 1.5954649 -2.69940294 1.5954649 0 0 Z " fill="#B89555" transform="translate(158,164)"/>
<path d="M0 0 C1.32 0 2.64 0 4 0 C4 3.3 4 6.6 4 10 C3.67 9.34 3.34 8.68 3 8 C2.34 8 1.68 8 1 8 C0.67 5.36 0.34 2.72 0 0 Z " fill="#AF9160" transform="translate(183,354)"/>
<path d="M0 0 C0.66 0.99 1.32 1.98 2 3 C1.01 3 0.02 3 -1 3 C-1 3.66 -1 4.32 -1 5 C3.95 5 8.9 5 14 5 C14 5.33 14 5.66 14 6 C11.93831015 6.19620767 9.87559002 6.38160753 7.8125 6.5625 C6.66394531 6.66691406 5.51539063 6.77132813 4.33203125 6.87890625 C1.31368801 6.98859985 -1.08923936 6.74002389 -4 6 C-4 5.01 -4 4.02 -4 3 C-2.68 2.67 -1.36 2.34 0 2 C0 1.34 0 0.68 0 0 Z " fill="#C0AE87" transform="translate(354,325)"/>
<path d="M0 0 C0 0.99 0 1.98 0 3 C-1.58294782 3.05437607 -3.16644256 3.09296271 -4.75 3.125 C-5.63171875 3.14820313 -6.5134375 3.17140625 -7.421875 3.1953125 C-10.1135858 2.99139502 -11.69904974 2.36551721 -14 1 C-9.23692563 0.04738513 -4.8333472 -0.08333357 0 0 Z " fill="#B3925B" transform="translate(122,326)"/>
<path d="M0 0 C0.99 0 1.98 0 3 0 C3 0.99 3 1.98 3 3 C3.66 3 4.32 3 5 3 C4.67 4.65 4.34 6.3 4 8 C3.67 7.01 3.34 6.02 3 5 C2.54625 5.495 2.0925 5.99 1.625 6.5 C0 8 0 8 -2 8 C-1.33333333 5.33333333 -0.66666667 2.66666667 0 0 Z " fill="#BBA479" transform="translate(339,304)"/>
<path d="M0 0 C0.33 0 0.66 0 1 0 C1 2.31 1 4.62 1 7 C-0.65 6.67 -2.3 6.34 -4 6 C-4.33 6.99 -4.66 7.98 -5 9 C-5.66 7.68 -6.32 6.36 -7 5 C-6.34 5 -5.68 5 -5 5 C-5 4.01 -5 3.02 -5 2 C-3.68 2.33 -2.36 2.66 -1 3 C-0.67 2.01 -0.34 1.02 0 0 Z " fill="#C7B187" transform="translate(214,358)"/>
<path d="M0 0 C0.99 0 1.98 0 3 0 C3.33 1.65 3.66 3.3 4 5 C1 7 1 7 -1.1875 6.625 C-1.785625 6.41875 -2.38375 6.2125 -3 6 C-2.01 4.02 -1.02 2.04 0 0 Z " fill="#5F98A7" transform="translate(149,222)"/>
<path d="M0 0 C0.90105469 0.00902344 1.80210937 0.01804688 2.73046875 0.02734375 C3.41753906 0.03894531 4.10460937 0.05054688 4.8125 0.0625 C5.1425 1.0525 5.4725 2.0425 5.8125 3.0625 C1.1925 3.0625 -3.4275 3.0625 -8.1875 3.0625 C-8.1875 2.4025 -8.1875 1.7425 -8.1875 1.0625 C-5.17259443 0.05753148 -3.14568308 -0.04085303 0 0 Z " fill="#AA9774" transform="translate(379.1875,164.9375)"/>
<path d="M0 0 C5.28137429 0.51525603 8.57221156 2.25477117 13 5 C12.67 5.99 12.34 6.98 12 8 C9.99743426 6.85865673 7.99800203 5.71181367 6 4.5625 C4.88625 3.92441406 3.7725 3.28632813 2.625 2.62890625 C1.75875 2.09136719 0.8925 1.55382812 0 1 C0 0.67 0 0.34 0 0 Z " fill="#BBA07C" transform="translate(278,149)"/>
<path d="M0 0 C1.98 0.66 3.96 1.32 6 2 C3.93243723 4.7972908 2.85559629 5.02692273 -0.6875 5.6875 C-1.780625 5.790625 -2.87375 5.89375 -4 6 C-4 5.34 -4 4.68 -4 4 C-2.68 4 -1.36 4 0 4 C0 2.68 0 1.36 0 0 Z " fill="#C1AD81" transform="translate(283,368)"/>
<path d="M0 0 C0.66 0.66 1.32 1.32 2 2 C1.96712417 4.72869407 1.43602229 7.2966618 1 10 C0.01 10 -0.98 10 -2 10 C-2 7.03 -2 4.06 -2 1 C-1.34 0.67 -0.68 0.34 0 0 Z " fill="#BB9664" transform="translate(265,359)"/>
<path d="M0 0 C5.39371278 1.8925308 10.1083961 4.04465598 15 7 C15 7.33 15 7.66 15 8 C12.69 8 10.38 8 8 8 C7.67 6.68 7.34 5.36 7 4 C6.1028125 3.7834375 6.1028125 3.7834375 5.1875 3.5625 C3.43849596 3.1127561 1.71322977 2.57107659 0 2 C0 1.34 0 0.68 0 0 Z " fill="#BAAA89" transform="translate(235,116)"/>
<path d="M0 0 C0.66 0 1.32 0 2 0 C2 2.97 2 5.94 2 9 C0.68 9 -0.64 9 -2 9 C-1.51421457 5.87709365 -1.0013988 3.00419641 0 0 Z " fill="#B29761" transform="translate(384,364)"/>
<path d="M0 0 C0.66 0 1.32 0 2 0 C2 1.65 2 3.3 2 5 C1.01 5.495 1.01 5.495 0 6 C-0.99 7.485 -0.99 7.485 -2 9 C-2.66 8.34 -3.32 7.68 -4 7 C-4 5.68 -4 4.36 -4 3 C-3.01 3 -2.02 3 -1 3 C-0.67 2.01 -0.34 1.02 0 0 Z " fill="#AD925D" transform="translate(340,309)"/>
<path d="M0 0 C0.66 0 1.32 0 2 0 C2 1.32 2 2.64 2 4 C3.65 3.67 5.3 3.34 7 3 C6.67 3.99 6.34 4.98 6 6 C2.4375 7.1875 2.4375 7.1875 -1 8 C-0.67 5.36 -0.34 2.72 0 0 Z " fill="#B5A57F" transform="translate(334,179)"/>
<path d="M0 0 C0.66 0 1.32 0 2 0 C1.67 4.29 1.34 8.58 1 13 C0.34 11.68 -0.32 10.36 -1 9 C-1.66 9 -2.32 9 -3 9 C-2.44271087 5.65626525 -1.64826111 2.96687001 0 0 Z " fill="#CDA983" transform="translate(308,287)"/>
<path d="M0 0 C2.31 0.33 4.62 0.66 7 1 C6.67 2.32 6.34 3.64 6 5 C4.02 5 2.04 5 0 5 C0 3.35 0 1.7 0 0 Z " fill="#5598AC" transform="translate(281,234)"/>
<path d="M0 0 C-0.33 0.99 -0.66 1.98 -1 3 C-1.66 3 -2.32 3 -3 3 C-3 3.66 -3 4.32 -3 5 C-2.34 5.33 -1.68 5.66 -1 6 C-1.33 6.66 -1.66 7.32 -2 8 C-2.99 7.67 -3.98 7.34 -5 7 C-5 5.68 -5 4.36 -5 3 C-5.66 2.67 -6.32 2.34 -7 2 C-4.35261084 0.5393715 -3.10551666 0 0 0 Z " fill="#B49761" transform="translate(167,155)"/>
<path d="M0 0 C0.33 0 0.66 0 1 0 C1 3.3 1 6.6 1 10 C-0.32 9.67 -1.64 9.34 -3 9 C-2.30058404 5.85262818 -1.23921302 2.97411124 0 0 Z " fill="#AD8B55" transform="translate(288,360)"/>
<path d="M0 0 C0.99 0.33 1.98 0.66 3 1 C2.34 1 1.68 1 1 1 C1 4.3 1 7.6 1 11 C-3 12 -3 12 -5 12 C-5 11.01 -5 10.02 -5 9 C-2.525 9.495 -2.525 9.495 0 10 C-0.08378906 9.36191406 -0.16757813 8.72382813 -0.25390625 8.06640625 C-0.40666016 6.82697266 -0.40666016 6.82697266 -0.5625 5.5625 C-0.66691406 4.73878906 -0.77132812 3.91507812 -0.87890625 3.06640625 C-0.91886719 2.38449219 -0.95882812 1.70257813 -1 1 C-0.67 0.67 -0.34 0.34 0 0 Z " fill="#A38A55" transform="translate(215,355)"/>
<path d="M0 0 C0.99 0.33 1.98 0.66 3 1 C3 1.99 3 2.98 3 4 C5.64 4 8.28 4 11 4 C11 4.33 11 4.66 11 5 C8.36 5 5.72 5 3 5 C2.67 6.32 2.34 7.64 2 9 C2 7.68 2 6.36 2 5 C1.34 5 0.68 5 0 5 C0 3.35 0 1.7 0 0 Z " fill="#BFA372" transform="translate(172,361)"/>
<path d="M0 0 C0.66 0 1.32 0 2 0 C1.01 3.3 0.02 6.6 -1 10 C-2.32 9.67 -3.64 9.34 -5 9 C-5.33 8.01 -5.66 7.02 -6 6 C-4.68 6 -3.36 6 -2 6 C-1.34 4.02 -0.68 2.04 0 0 Z " fill="#BFA784" transform="translate(335,322)"/>
<path d="M0 0 C0.66 0 1.32 0 2 0 C2 0.66 2 1.32 2 2 C2.66 2 3.32 2 4 2 C4.33 2.99 4.66 3.98 5 5 C3.35 5 1.7 5 0 5 C0 6.65 0 8.3 0 10 C-0.33 10 -0.66 10 -1 10 C-1.125 2.25 -1.125 2.25 0 0 Z M4 1 C6 2 6 2 6 2 Z " fill="#AD8D53" transform="translate(308,282)"/>
<path d="M0 0 C4 2 4 2 6 4 C6 5.32 6 6.64 6 8 C5.34 8 4.68 8 4 8 C3.67 8.66 3.34 9.32 3 10 C2.01 6.7 1.02 3.4 0 0 Z " fill="#BB9454" transform="translate(124,276)"/>
<path d="M0 0 C2.64 0 5.28 0 8 0 C8 0.99 8 1.98 8 3 C6.02 3.66 4.04 4.32 2 5 C1.34 3.35 0.68 1.7 0 0 Z " fill="#AF9E72" transform="translate(166,271)"/>
<path d="M0 0 C-0.99 0.495 -0.99 0.495 -2 1 C-2.65213292 3.02463255 -2.65213292 3.02463255 -3 5 C-4.98 5 -6.96 5 -9 5 C-8.01 4.67 -7.02 4.34 -6 4 C-6.33 2.68 -6.66 1.36 -7 0 C-4.3333581 -1.33332095 -2.83319697 -0.67102033 0 0 Z " fill="#67A7B8" transform="translate(280,242)"/>
<path d="M0 0 C0 0.66 0 1.32 0 2 C-1.6232687 2.6708712 -3.24867578 3.33657029 -4.875 4 C-6.23238281 4.556875 -6.23238281 4.556875 -7.6171875 5.125 C-10 6 -10 6 -12 6 C-11 3 -11 3 -9.2578125 2.05078125 C-8.55398438 1.80714844 -7.85015625 1.56351563 -7.125 1.3125 C-6.42632812 1.06113281 -5.72765625 0.80976563 -5.0078125 0.55078125 C-3 0 -3 0 0 0 Z " fill="#6091A1" transform="translate(361,231)"/>
<path d="M0 0 C2.475 0.99 2.475 0.99 5 2 C5 2.66 5 3.32 5 4 C5.66 4.33 6.32 4.66 7 5 C6.34 5 5.68 5 5 5 C4.67 5.99 4.34 6.98 4 8 C2 6.25 2 6.25 0 4 C0 2.68 0 1.36 0 0 Z " fill="#BB9F75" transform="translate(379,177)"/>
<path d="M0 0 C3.33333333 0 6.66666667 0 10 0 C10 2.64 10 5.28 10 8 C9.01 7.67 8.02 7.34 7 7 C6.67 5.35 6.34 3.7 6 2 C3.03 1.505 3.03 1.505 0 1 C0 0.67 0 0.34 0 0 Z " fill="#A4874E" transform="translate(177,364)"/>
<path d="M0 0 C0.99 0 1.98 0 3 0 C3.375 7.5 3.375 7.5 0 12 C0 8.04 0 4.08 0 0 Z " fill="#A7884C" transform="translate(135,355)"/>
<path d="M0 0 C2.31 0 4.62 0 7 0 C7 0.66 7 1.32 7 2 C7.66 2.33 8.32 2.66 9 3 C5.7 3 2.4 3 -1 3 C-0.67 2.01 -0.34 1.02 0 0 Z " fill="#B18E50" transform="translate(254,328)"/>
<path d="M0 0 C0 0.33 0 0.66 0 1 C-1.93596892 1.22211116 -3.87389328 1.42722992 -5.8125 1.625 C-7.43091797 1.79902344 -7.43091797 1.79902344 -9.08203125 1.9765625 C-12 2 -12 2 -15 0 C-9.62374766 -0.84888195 -5.34629602 -1.0024305 0 0 Z " fill="#75A7B4" transform="translate(344,238)"/>
<path d="M0 0 C0.99 0 1.98 0 3 0 C3 0.99 3 1.98 3 3 C3.99 3.33 4.98 3.66 6 4 C4.68 5.32 3.36 6.64 2 8 C0.23537317 4.91190305 0 3.76687864 0 0 Z " fill="#BAA57F" transform="translate(341,196)"/>
<path d="M0 0 C3 0 3 0 4.5625 1.4375 C5.036875 1.953125 5.51125 2.46875 6 3 C6.66 3.33 7.32 3.66 8 4 C7.67 4.99 7.34 5.98 7 7 C4.03 5.35 1.06 3.7 -2 2 C-1.34 1.34 -0.68 0.68 0 0 Z " fill="#B4A076" transform="translate(296,157)"/>
<path d="M0 0 C1.65 0 3.3 0 5 0 C4.67 1.65 4.34 3.3 4 5 C3.01 5.33 2.02 5.66 1 6 C0.67 4.02 0.34 2.04 0 0 Z " fill="#AB9463" transform="translate(318,354)"/>
<path d="M0 0 C2.475 0.495 2.475 0.495 5 1 C5.05437607 2.58294782 5.09296271 4.16644256 5.125 5.75 C5.14820313 6.63171875 5.17140625 7.5134375 5.1953125 8.421875 C4.99139502 11.1135858 4.36551721 12.69904974 3 15 C1.79431947 10.32798795 1.90617574 5.78503708 2 1 C1.34 0.67 0.68 0.34 0 0 Z " fill="#B89F73" transform="translate(366,354)"/>
<path d="M0 0 C1.98 1.65 3.96 3.3 6 5 C5.34 5.66 4.68 6.32 4 7 C0.64641875 5.88213958 -1.31158141 4.25245881 -4 2 C-2.68 1.34 -1.36 0.68 0 0 Z " fill="#C7AE84" transform="translate(122,323)"/>
<path d="M0 0 C4.29 0 8.58 0 13 0 C13 0.33 13 0.66 13 1 C9.37 1 5.74 1 2 1 C2.33 2.32 2.66 3.64 3 5 C1.68 4.67 0.36 4.34 -1 4 C-0.67 2.68 -0.34 1.36 0 0 Z " fill="#DDD7C9" transform="translate(299,270)"/>
<path d="M0 0 C2.97 0 5.94 0 9 0 C8.67 0.99 8.34 1.98 8 3 C5.03 3 2.06 3 -1 3 C-0.67 2.01 -0.34 1.02 0 0 Z " fill="#A38855" transform="translate(109,271)"/>
<path d="M0 0 C0.66 0.33 1.32 0.66 2 1 C0.63016497 4.16115776 0.0109362 4.9927092 -3 7 C-3.99 6.01 -4.98 5.02 -6 4 C-4.02 2.68 -2.04 1.36 0 0 Z " fill="#91B0B6" transform="translate(372,223)"/>
<path d="M0 0 C2 2 2 2 2 6 C0.35 6 -1.3 6 -3 6 C-2.625 3.5625 -2.625 3.5625 -2 1 C-1.34 0.67 -0.68 0.34 0 0 Z " fill="#B3A07C" transform="translate(398,367)"/>
<path d="M0 0 C0.99 0 1.98 0 3 0 C3 2.64 3 5.28 3 8 C2.34 7.34 1.68 6.68 1 6 C0.01 6.495 0.01 6.495 -1 7 C-0.67 4.69 -0.34 2.38 0 0 Z " fill="#BEA16E" transform="translate(305,312)"/>
<path d="M0 0 C1.58294782 -0.05437607 3.16644256 -0.09296271 4.75 -0.125 C5.63171875 -0.14820313 6.5134375 -0.17140625 7.421875 -0.1953125 C10.1135858 0.00860498 11.69904974 0.63448279 14 2 C13.21625 2.309375 12.4325 2.61875 11.625 2.9375 C9.07669872 3.92875038 9.07669872 3.92875038 7 5 C7 3.68 7 2.36 7 1 C4.69 1 2.38 1 0 1 C0 0.67 0 0.34 0 0 Z " fill="#B69B6B" transform="translate(392,272)"/>
<path d="M0 0 C0.33 0 0.66 0 1 0 C1 1.65 1 3.3 1 5 C-0.98 5.99 -0.98 5.99 -3 7 C-3.99 6.34 -4.98 5.68 -6 5 C-5.67 4.34 -5.34 3.68 -5 3 C-4.34 3.33 -3.68 3.66 -3 4 C-3 3.34 -3 2.68 -3 2 C-2.01 2 -1.02 2 0 2 C0 1.34 0 0.68 0 0 Z " fill="#C1AA76" transform="translate(359,224)"/>
<path d="M0 0 C0.66 0.33 1.32 0.66 2 1 C2 1.66 2 2.32 2 3 C-1.96 2.67 -5.92 2.34 -10 2 C-6.33134759 -0.44576827 -4.32799657 -0.23607254 0 0 Z " fill="#78ACB9" transform="translate(207,224)"/>
<path d="M0 0 C1.32 0.33 2.64 0.66 4 1 C4 2.32 4 3.64 4 5 C0.37 5 -3.26 5 -7 5 C-7 4.67 -7 4.34 -7 4 C-3.535 3.505 -3.535 3.505 0 3 C0 2.01 0 1.02 0 0 Z " fill="#B5A582" transform="translate(323,166)"/>
<path d="M0 0 C1.32 0 2.64 0 4 0 C4 1.65 4 3.3 4 5 C2.68 4.67 1.36 4.34 0 4 C0 5.98 0 7.96 0 10 C-0.33 10 -0.66 10 -1 10 C-1.125 3.375 -1.125 3.375 0 0 Z " fill="#BEA174" transform="translate(233,358)"/>
<path d="M0 0 C1.98 0.495 1.98 0.495 4 1 C3.34 3.97 2.68 6.94 2 10 C1.67 10 1.34 10 1 10 C1 7.69 1 5.38 1 3 C0.01 3.495 0.01 3.495 -1 4 C-0.67 2.68 -0.34 1.36 0 0 Z " fill="#AF9972" transform="translate(349,353)"/>
<path d="M0 0 C1.32 0.66 2.64 1.32 4 2 C4 4.64 4 7.28 4 10 C3.67 10 3.34 10 3 10 C2.67 8.35 2.34 6.7 2 5 C1.01 5.495 1.01 5.495 0 6 C-1.125 2.25 -1.125 2.25 0 0 Z " fill="#A38654" transform="translate(264,356)"/>
<path d="M0 0 C2 2 2 2 2.125 4.625 C2.08375 5.40875 2.0425 6.1925 2 7 C0.68 7.33 -0.64 7.66 -2 8 C-2.33 7.34 -2.66 6.68 -3 6 C-2.06553465 3.96855359 -1.06775224 1.96466413 0 0 Z " fill="#AF9355" transform="translate(277,314)"/>
<path d="M0 0 C0.79921875 0.20367187 1.5984375 0.40734375 2.421875 0.6171875 C3.02515625 0.78476563 3.6284375 0.95234375 4.25 1.125 C3.92 1.785 3.59 2.445 3.25 3.125 C-0.77992782 2.57187265 -4.77022924 1.9691938 -8.75 1.125 C-5.45750312 -0.91393155 -3.7130065 -0.98285466 0 0 Z " fill="#77A9B2" transform="translate(218.75,226.875)"/>
<path d="M0 0 C0.99 0.33 1.98 0.66 3 1 C3 2.98 3 4.96 3 7 C2.01 7 1.02 7 0 7 C-0.33 6.01 -0.66 5.02 -1 4 C-1.66 3.34 -2.32 2.68 -3 2 C-2.01 2 -1.02 2 0 2 C0 1.34 0 0.68 0 0 Z " fill="#B39157" transform="translate(198,137)"/>
<path d="M0 0 C2.31 0 4.62 0 7 0 C7 0.99 7 1.98 7 3 C4.69 3 2.38 3 0 3 C0 2.01 0 1.02 0 0 Z " fill="#A48754" transform="translate(370,370)"/>
<path d="M0 0 C0.33 0.99 0.66 1.98 1 3 C1.99 3 2.98 3 4 3 C4 3.99 4 4.98 4 6 C2.02 6 0.04 6 -2 6 C-1.34 4.02 -0.68 2.04 0 0 Z " fill="#BCA989" transform="translate(142,367)"/>
<path d="M0 0 C0.928125 0.5259375 0.928125 0.5259375 1.875 1.0625 C2.57625 1.371875 3.2775 1.68125 4 2 C4.66 1.67 5.32 1.34 6 1 C5.34 2.98 4.68 4.96 4 7 C3.01 6.67 2.02 6.34 1 6 C1 5.34 1 4.68 1 4 C0.34 3.67 -0.32 3.34 -1 3 C-0.67 2.01 -0.34 1.02 0 0 Z " fill="#C1AA84" transform="translate(335,313)"/>
<path d="M0 0 C-0.99 1.485 -0.99 1.485 -2 3 C-4.91517292 1.92598892 -6.77810176 1.22189824 -9 -1 C-5.22102349 -2.0497157 -3.35080929 -2.10976881 0 0 Z " fill="#C1AA7A" transform="translate(127,303)"/>
<path d="M0 0 C0.99 0.66 1.98 1.32 3 2 C2.67 3.65 2.34 5.3 2 7 C1.34 7 0.68 7 0 7 C-0.66 5.35 -1.32 3.7 -2 2 C-1.34 1.34 -0.68 0.68 0 0 Z " fill="#BC9654" transform="translate(318,292)"/>
<path d="M0 0 C0 0.99 0 1.98 0 3 C-0.928125 3.1546875 -0.928125 3.1546875 -1.875 3.3125 C-4.36526484 3.87525373 -4.36526484 3.87525373 -6 7 C-6 5.02 -6 3.04 -6 1 C-4 0 -4 0 0 0 Z " fill="#B4A27B" transform="translate(248,271)"/>
<path d="M0 0 C0.33 0 0.66 0 1 0 C1.125 7.75 1.125 7.75 0 10 C-0.66 10 -1.32 10 -2 10 C-2.33 8.68 -2.66 7.36 -3 6 C-2.34 6 -1.68 6 -1 6 C-0.67 4.02 -0.34 2.04 0 0 Z " fill="#BBA985" transform="translate(377,196)"/>
<path d="M0 0 C6.0546875 -0.1953125 6.0546875 -0.1953125 8 0 C8.66 0.66 9.32 1.32 10 2 C7.03 2.66 4.06 3.32 1 4 C0.67 2.68 0.34 1.36 0 0 Z " fill="#B6925B" transform="translate(373,167)"/>
<path d="M0 0 C1.32 0.33 2.64 0.66 4 1 C3.67 2.65 3.34 4.3 3 6 C0.525 5.01 0.525 5.01 -2 4 C-1.01 3.67 -0.02 3.34 1 3 C0.67 2.01 0.34 1.02 0 0 Z " fill="#BA9665" transform="translate(241,124)"/>
<path d="M0 0 C0.66 1.32 1.32 2.64 2 4 C1.38125 4.144375 0.7625 4.28875 0.125 4.4375 C-2.03258322 4.93152225 -2.03258322 4.93152225 -4 6 C-4.33 4.35 -4.66 2.7 -5 1 C-2 0 -2 0 0 0 Z " fill="#BFA371" transform="translate(326,362)"/>
<path d="M0 0 C0 1.32 0 2.64 0 4 C-1.98 4 -3.96 4 -6 4 C-5.67 3.01 -5.34 2.02 -5 1 C-3 0 -3 0 0 0 Z " fill="#A98F52" transform="translate(273,324)"/>
<path d="M0 0 C0.66 0.33 1.32 0.66 2 1 C0.515 4.96 0.515 4.96 -1 9 C-3 6 -3 6 -3 2 C-2.01 1.34 -1.02 0.68 0 0 Z " fill="#AC8F54" transform="translate(352,283)"/>
<path d="M0 0 C0.66 0 1.32 0 2 0 C2.12375 0.639375 2.2475 1.27875 2.375 1.9375 C2.684375 2.9584375 2.684375 2.9584375 3 4 C3.66 4.33 4.32 4.66 5 5 C1.67465243 6.10844919 -0.62182575 5.84454356 -4 5 C-4 4.67 -4 4.34 -4 4 C-2.35 4 -0.7 4 1 4 C0.67 2.68 0.34 1.36 0 0 Z " fill="#AC8B56" transform="translate(354,171)"/>
<path d="M0 0 C2.475 0.99 2.475 0.99 5 2 C5 2.66 5 3.32 5 4 C3.68 4 2.36 4 1 4 C0.67 4.99 0.34 5.98 0 7 C-1.125 2.25 -1.125 2.25 0 0 Z " fill="#BA9A6A" transform="translate(291,147)"/>
<path d="M0 0 C0.99 0.33 1.98 0.66 3 1 C3 2.32 3 3.64 3 5 C0.69 4.34 -1.62 3.68 -4 3 C-2.1875 1.4375 -2.1875 1.4375 0 0 Z " fill="#BA9C76" transform="translate(189,141)"/>
<path d="M0 0 C1.32 0.66 2.64 1.32 4 2 C3.34 2 2.68 2 2 2 C2.66 3.32 3.32 4.64 4 6 C2.35 5.67 0.7 5.34 -1 5 C-0.67 3.35 -0.34 1.7 0 0 Z " fill="#B19462" transform="translate(324,365)"/>
<path d="M0 0 C1.32 0 2.64 0 4 0 C4 1.98 4 3.96 4 6 C3.67 5.01 3.34 4.02 3 3 C2.34 3 1.68 3 1 3 C0.67 4.32 0.34 5.64 0 7 C0 4.69 0 2.38 0 0 Z " fill="#C6A87B" transform="translate(202,363)"/>
<path d="M0 0 C0.33 0.99 0.66 1.98 1 3 C-0.40445835 5.2636564 -2.1967913 7.0208685 -4 9 C-4.33 8.01 -4.66 7.02 -5 6 C-3.6875 3.8125 -3.6875 3.8125 -2 2 C-1.34 2 -0.68 2 0 2 C0 1.34 0 0.68 0 0 Z " fill="#B69F7B" transform="translate(132,288)"/>
<path d="M0 0 C2.64 0.33 5.28 0.66 8 1 C5.03312999 2.64826111 2.34373475 3.44271087 -1 4 C-0.67 2.68 -0.34 1.36 0 0 Z " fill="#6DABB4" transform="translate(288,235)"/>
<path d="M0 0 C-1.32 1.32 -2.64 2.64 -4 4 C-5.32 3.34 -6.64 2.68 -8 2 C-4.77208445 -0.1519437 -3.71599191 -0.20086443 0 0 Z " fill="#58A2B7" transform="translate(361,234)"/>
<path d="M0 0 C2.9375 0.75 2.9375 0.75 6 2 C6.875 4.125 6.875 4.125 7 6 C4 6 4 6 1.8125 4.125 C0 2 0 2 0 0 Z " fill="#BAA27F" transform="translate(298,151)"/>
<path d="M0 0 C1.32 0 2.64 0 4 0 C3 3 2 6 1 9 C0.67 9 0.34 9 0 9 C0 6.03 0 3.06 0 0 Z " fill="#AF9565" transform="translate(202,354)"/>
<path d="M0 0 C1.9453125 0.2421875 1.9453125 0.2421875 4.125 0.875 C4.84945312 1.07867187 5.57390625 1.28234375 6.3203125 1.4921875 C6.87460938 1.65976563 7.42890625 1.82734375 8 2 C7.67 2.66 7.34 3.32 7 4 C2.545 3.01 2.545 3.01 -2 2 C-1.34 1.34 -0.68 0.68 0 0 Z " fill="#77A0AD" transform="translate(228,230)"/>
<path d="M0 0 C0.66 0.33 1.32 0.66 2 1 C1.67 1.66 1.34 2.32 1 3 C0.01 3 -0.98 3 -2 3 C-2 3.66 -2 4.32 -2 5 C-2.99 5.33 -3.98 5.66 -5 6 C-5.66 5.34 -6.32 4.68 -7 4 C-1.7265625 0.77734375 -1.7265625 0.77734375 0 0 Z " fill="#B6A081" transform="translate(158,158)"/>
<path d="M0 0 C0.66 0 1.32 0 2 0 C2 1.98 2 3.96 2 6 C0.68 5.67 -0.64 5.34 -2 5 C-1 2 -1 2 0 0 Z " fill="#AA8B59" transform="translate(234,366)"/>
<path d="M0 0 C0.66 0.33 1.32 0.66 2 1 C1.67 3.31 1.34 5.62 1 8 C-1 5 -1 5 -0.625 2.3125 C-0.41875 1.549375 -0.2125 0.78625 0 0 Z " fill="#B28E53" transform="translate(274,360)"/>
<path d="M0 0 C1.99097846 2.98646769 2.94124926 5.59687262 4 9 C2.68 8.67 1.36 8.34 0 8 C0 5.36 0 2.72 0 0 Z " fill="#C4B387" transform="translate(393,355)"/>
<path d="M0 0 C1.32 0.66 2.64 1.32 4 2 C1.03 2 -1.94 2 -5 2 C-5.33 1.34 -5.66 0.68 -6 0 C-3 -1 -3 -1 0 0 Z " fill="#A98D61" transform="translate(97,328)"/>
<path d="M0 0 C1.32 1.32 2.64 2.64 4 4 C3.34 4.66 2.68 5.32 2 6 C0.68 6 -0.64 6 -2 6 C-1.34 4.02 -0.68 2.04 0 0 Z " fill="#BA9F7A" transform="translate(244,319)"/>
<path d="M0 0 C0.66 0.33 1.32 0.66 2 1 C2 2.32 2 3.64 2 5 C1.01 5.495 1.01 5.495 0 6 C-0.66 6.99 -1.32 7.98 -2 9 C-1.125 2.25 -1.125 2.25 0 0 Z " fill="#AC9055" transform="translate(305,317)"/>
<path d="M0 0 C0.66 0 1.32 0 2 0 C2.75 1.6875 2.75 1.6875 3 4 C1.0625 6.75 1.0625 6.75 -1 9 C-1 7.02 -1 5.04 -1 3 C-0.34 3 0.32 3 1 3 C0.67 2.01 0.34 1.02 0 0 Z " fill="#C6B18A" transform="translate(124,279)"/>
<path d="M0 0 C3 1 3 1 4 3 C4.04022391 5.3329866 4.04320247 7.66706666 4 10 C3.67 10 3.34 10 3 10 C2.87625 9.236875 2.7525 8.47375 2.625 7.6875 C2.11897208 4.79732864 2.11897208 4.79732864 0 2 C0 1.34 0 0.68 0 0 Z " fill="#BFAD8C" transform="translate(130,278)"/>
<path d="M0 0 C1.32 0 2.64 0 4 0 C4 0.66 4 1.32 4 2 C3.01 2.495 3.01 2.495 2 3 C0.86649466 5.01669827 0.86649466 5.01669827 0 7 C-0.66 5.35 -1.32 3.7 -2 2 C-1.34 2 -0.68 2 0 2 C0 1.34 0 0.68 0 0 Z " fill="#BAA272" transform="translate(275,272)"/>
<path d="M0 0 C2.31 0.66 4.62 1.32 7 2 C6.67 2.66 6.34 3.32 6 4 C3.36 3.34 0.72 2.68 -2 2 C-1.34 1.34 -0.68 0.68 0 0 Z " fill="#79A4B7" transform="translate(237,233)"/>
<path d="M0 0 C-0.185625 0.61875 -0.37125 1.2375 -0.5625 1.875 C-1.23686176 4.04160178 -1.23686176 4.04160178 0 6 C-0.99 6 -1.98 6 -3 6 C-3.33 5.34 -3.66 4.68 -4 4 C-4.66 3.67 -5.32 3.34 -6 3 C-2.25 0 -2.25 0 0 0 Z " fill="#82B0BC" transform="translate(148,224)"/>
<path d="M0 0 C-3.96 1.98 -3.96 1.98 -8 4 C-8.33 3.34 -8.66 2.68 -9 2 C-3.375 -1.125 -3.375 -1.125 0 0 Z " fill="#B9A47A" transform="translate(213,139)"/>
</svg>
